; NON-PLATED HOLES START AT T1
; THROUGH (PLATED) HOLES START AT T100
M48
INCH
T1C0.125984
T100C0.015748
T101C0.035000
T102C0.030000
T103C0.031497
T104C0.038000
T105C0.098425
T106C0.039370
T107C0.046111
T108C0.040000
T109C0.051181
%
T1
X050722Y037221
X001722Y037221
X050222Y002221
X002222Y002221
T100
X025222Y022721
X016722Y021221
T101
X012222Y020221
X028222Y020221
X033222Y017221
X027222Y020221
X029222Y017221
X030222Y020221
X033222Y021221
X025222Y020221
X024222Y020221
X026222Y017221
X023222Y017221
X022222Y017221
X035222Y017221
X029222Y020221
X035222Y021221
X008222Y020221
X026222Y020221
X028222Y017221
X027222Y017221
X030222Y017221
X023222Y020221
X025222Y017221
X022222Y020221
X024222Y017221
T102
X031722Y019221
X031722Y018219
X030222Y009221
X033222Y014221
X029222Y014221
X032222Y014221
X033222Y011221
X029222Y011221
X032222Y011221
X026222Y014221
X026222Y011221
X023222Y014221
X022222Y014221
X023222Y011221
X022222Y011221
X035222Y014221
X034222Y014221
X035222Y011221
X031224Y009221
X034222Y011221
X028222Y014221
X031222Y014221
X027222Y014221
X030222Y014221
X028222Y011221
X031222Y011221
X025222Y014221
X027222Y011221
X030222Y011221
X024222Y014221
X025222Y011221
X024222Y011221
T103
X027222Y006721
X010722Y003205
X006222Y002221
X015722Y002221
X023222Y007705
X021222Y006721
X025222Y007705
X037222Y021221
X010722Y002221
X038206Y021221
X027222Y007705
X023222Y006721
X006222Y003205
X015722Y003205
X021222Y007705
X025222Y006721
T104
X040722Y022221
X000722Y010221
X050723Y017508
X000722Y011221
X042848Y017509
X000722Y012221
X000722Y009221
X000722Y013221
X042848Y035225
X050722Y035221
X040722Y020221
X000722Y014221
X040722Y021221
T105
X017722Y015721
X017722Y007721
X004722Y015721
X004722Y007721
T106
X011222Y007721
X007222Y007721
X013222Y015721
X009222Y015721
X012222Y015721
X010222Y015721
X004522Y014221
X016222Y007721
X004522Y011221
X013222Y007721
X009222Y007721
X015222Y015721
X012222Y007721
X014222Y015721
X010222Y007721
X004522Y009221
X008222Y015721
X004522Y013221
X011222Y015721
X007222Y015721
X004522Y010221
X015222Y007721
X014222Y007721
X016222Y015721
X004522Y012221
X008222Y007721
T107
X008222Y024721
X011222Y024721
X009222Y024721
X010222Y024721
T108
X029111Y035721
X027734Y035721
X026356Y035721
X024978Y035721
X050222Y014721
X023600Y035721
X050222Y013343
X022222Y035721
T109
X025222Y026221
X032222Y030371
X017222Y026221
X020222Y026221
X027222Y032221
X022222Y030371
X032222Y026221
X035222Y031221
X017222Y032221
X027222Y030371
X022222Y026221
X030222Y031221
X025222Y031221
X032222Y032221
X035222Y026221
X017222Y030371
X020222Y031221
X027222Y026221
X030222Y026221
X022222Y032221
T00
M30
