G04 MADE WITH FRITZING*
G04 WWW.FRITZING.ORG*
G04 DOUBLE SIDED*
G04 HOLES PLATED*
G04 CONTOUR ON CENTER OF CONTOUR VECTOR*
%ASAXBY*%
%FSLAX23Y23*%
%MOIN*%
%OFA0B0*%
%SFA1.0B1.0*%
%ADD10C,0.085000*%
%ADD11C,0.080000*%
%ADD12C,0.100000*%
%ADD13C,0.090000*%
%ADD14C,0.083889*%
%ADD15C,0.072992*%
%ADD16C,0.088000*%
%ADD17C,0.148425*%
%ADD18C,0.049370*%
%ADD19C,0.135984*%
%ADD20R,0.085000X0.085000*%
%ADD21R,0.090000X0.090000*%
%ADD22R,0.072992X0.072992*%
%ADD23R,0.088000X0.088000*%
%ADD24R,0.001000X0.001000*%
%LNMASK0*%
G90*
G70*
G54D10*
X2222Y1722D03*
X2222Y2022D03*
X2322Y1722D03*
X2322Y2022D03*
X2422Y1722D03*
X2422Y2022D03*
X2522Y1722D03*
X2522Y2022D03*
X2622Y1722D03*
X2622Y2022D03*
X2722Y1722D03*
X2722Y2022D03*
X2822Y1722D03*
X2822Y2022D03*
X2922Y1722D03*
X2922Y2022D03*
X3022Y1722D03*
X3022Y2022D03*
G54D11*
X3172Y1922D03*
X3172Y1822D03*
G54D12*
X2022Y3122D03*
X1722Y2622D03*
X2022Y2622D03*
X1722Y3222D03*
X1722Y3037D03*
X2522Y3122D03*
X2222Y2622D03*
X2522Y2622D03*
X2222Y3222D03*
X2222Y3037D03*
X3022Y3122D03*
X2722Y2622D03*
X3022Y2622D03*
X2722Y3222D03*
X2722Y3037D03*
X3522Y3122D03*
X3222Y2622D03*
X3522Y2622D03*
X3222Y3222D03*
X3222Y3037D03*
G54D13*
X2222Y3572D03*
X2360Y3572D03*
X2498Y3572D03*
X2636Y3572D03*
X2773Y3572D03*
X2911Y3572D03*
G54D14*
X1122Y2472D03*
X1022Y2472D03*
X922Y2472D03*
X822Y2472D03*
G54D10*
X822Y2022D03*
X1222Y2022D03*
G54D15*
X3821Y2122D03*
X3722Y2122D03*
G54D10*
X3522Y1722D03*
X3522Y2122D03*
G54D16*
X5072Y3522D03*
X4285Y3523D03*
X5072Y1751D03*
X4285Y1751D03*
G54D17*
X472Y1572D03*
X1772Y1572D03*
G54D11*
X452Y1422D03*
X452Y1322D03*
X452Y1222D03*
X452Y1122D03*
X452Y1022D03*
X452Y922D03*
X1622Y1572D03*
X1522Y1572D03*
X1422Y1572D03*
X1322Y1572D03*
X1222Y1572D03*
X1122Y1572D03*
X1022Y1572D03*
X922Y1572D03*
X822Y1572D03*
G54D17*
X1772Y772D03*
G54D11*
X722Y1572D03*
G54D17*
X472Y772D03*
G54D11*
X722Y772D03*
X822Y772D03*
X922Y772D03*
X1022Y772D03*
X1122Y772D03*
X1222Y772D03*
X1322Y772D03*
X1422Y772D03*
X1522Y772D03*
X1622Y772D03*
G54D10*
X3322Y1722D03*
X3322Y2122D03*
G54D15*
X2322Y771D03*
X2322Y672D03*
X2522Y771D03*
X2522Y672D03*
X2122Y771D03*
X2122Y672D03*
X2722Y771D03*
X2722Y672D03*
G54D11*
X3022Y922D03*
X3122Y922D03*
G54D15*
X622Y321D03*
X622Y222D03*
X1072Y321D03*
X1072Y222D03*
X1572Y321D03*
X1572Y222D03*
G54D13*
X5022Y1472D03*
X5022Y1334D03*
G54D16*
X4072Y2222D03*
X4072Y2122D03*
X4072Y2022D03*
X72Y1422D03*
X72Y1322D03*
X72Y1222D03*
X72Y1122D03*
X72Y1022D03*
X72Y922D03*
G54D18*
X1672Y2122D03*
X2522Y2272D03*
G54D19*
X5022Y222D03*
X5072Y3722D03*
X222Y222D03*
X172Y3722D03*
G54D20*
X2222Y1722D03*
G54D21*
X2222Y3572D03*
G54D22*
X3821Y2122D03*
G54D21*
X4285Y3522D03*
G54D23*
X5072Y3522D03*
X5072Y1751D03*
X4285Y1751D03*
G54D22*
X2322Y771D03*
X2522Y771D03*
X2122Y771D03*
X2722Y771D03*
X622Y321D03*
X1072Y321D03*
X1572Y321D03*
G54D21*
X5022Y1472D03*
G54D24*
X2217Y1463D02*
X2226Y1463D01*
X2317Y1463D02*
X2326Y1463D01*
X2417Y1463D02*
X2426Y1463D01*
X2517Y1463D02*
X2526Y1463D01*
X2617Y1463D02*
X2626Y1463D01*
X2717Y1463D02*
X2726Y1463D01*
X2817Y1463D02*
X2826Y1463D01*
X2917Y1463D02*
X2926Y1463D01*
X3017Y1463D02*
X3026Y1463D01*
X3117Y1463D02*
X3126Y1463D01*
X3217Y1463D02*
X3226Y1463D01*
X3317Y1463D02*
X3326Y1463D01*
X3417Y1463D02*
X3426Y1463D01*
X3517Y1463D02*
X3526Y1463D01*
X2212Y1462D02*
X2231Y1462D01*
X2312Y1462D02*
X2331Y1462D01*
X2412Y1462D02*
X2431Y1462D01*
X2512Y1462D02*
X2531Y1462D01*
X2612Y1462D02*
X2631Y1462D01*
X2712Y1462D02*
X2731Y1462D01*
X2812Y1462D02*
X2831Y1462D01*
X2912Y1462D02*
X2931Y1462D01*
X3012Y1462D02*
X3031Y1462D01*
X3112Y1462D02*
X3131Y1462D01*
X3212Y1462D02*
X3231Y1462D01*
X3312Y1462D02*
X3331Y1462D01*
X3412Y1462D02*
X3431Y1462D01*
X3512Y1462D02*
X3531Y1462D01*
X2208Y1461D02*
X2234Y1461D01*
X2308Y1461D02*
X2334Y1461D01*
X2408Y1461D02*
X2434Y1461D01*
X2508Y1461D02*
X2534Y1461D01*
X2608Y1461D02*
X2634Y1461D01*
X2708Y1461D02*
X2734Y1461D01*
X2808Y1461D02*
X2834Y1461D01*
X2908Y1461D02*
X2934Y1461D01*
X3008Y1461D02*
X3034Y1461D01*
X3108Y1461D02*
X3134Y1461D01*
X3208Y1461D02*
X3234Y1461D01*
X3308Y1461D02*
X3334Y1461D01*
X3408Y1461D02*
X3434Y1461D01*
X3508Y1461D02*
X3534Y1461D01*
X2206Y1460D02*
X2237Y1460D01*
X2306Y1460D02*
X2337Y1460D01*
X2406Y1460D02*
X2437Y1460D01*
X2506Y1460D02*
X2537Y1460D01*
X2606Y1460D02*
X2637Y1460D01*
X2706Y1460D02*
X2737Y1460D01*
X2806Y1460D02*
X2837Y1460D01*
X2906Y1460D02*
X2937Y1460D01*
X3006Y1460D02*
X3037Y1460D01*
X3106Y1460D02*
X3137Y1460D01*
X3206Y1460D02*
X3237Y1460D01*
X3306Y1460D02*
X3337Y1460D01*
X3406Y1460D02*
X3437Y1460D01*
X3506Y1460D02*
X3537Y1460D01*
X2204Y1459D02*
X2239Y1459D01*
X2304Y1459D02*
X2339Y1459D01*
X2404Y1459D02*
X2439Y1459D01*
X2504Y1459D02*
X2539Y1459D01*
X2604Y1459D02*
X2639Y1459D01*
X2704Y1459D02*
X2739Y1459D01*
X2804Y1459D02*
X2839Y1459D01*
X2904Y1459D02*
X2939Y1459D01*
X3004Y1459D02*
X3039Y1459D01*
X3104Y1459D02*
X3139Y1459D01*
X3204Y1459D02*
X3239Y1459D01*
X3304Y1459D02*
X3339Y1459D01*
X3404Y1459D02*
X3439Y1459D01*
X3504Y1459D02*
X3539Y1459D01*
X2202Y1458D02*
X2241Y1458D01*
X2302Y1458D02*
X2341Y1458D01*
X2402Y1458D02*
X2441Y1458D01*
X2502Y1458D02*
X2541Y1458D01*
X2602Y1458D02*
X2641Y1458D01*
X2702Y1458D02*
X2741Y1458D01*
X2802Y1458D02*
X2841Y1458D01*
X2902Y1458D02*
X2941Y1458D01*
X3002Y1458D02*
X3041Y1458D01*
X3102Y1458D02*
X3141Y1458D01*
X3202Y1458D02*
X3241Y1458D01*
X3302Y1458D02*
X3341Y1458D01*
X3402Y1458D02*
X3441Y1458D01*
X3502Y1458D02*
X3541Y1458D01*
X2200Y1457D02*
X2243Y1457D01*
X2300Y1457D02*
X2342Y1457D01*
X2400Y1457D02*
X2442Y1457D01*
X2500Y1457D02*
X2542Y1457D01*
X2600Y1457D02*
X2642Y1457D01*
X2700Y1457D02*
X2742Y1457D01*
X2800Y1457D02*
X2842Y1457D01*
X2900Y1457D02*
X2942Y1457D01*
X3000Y1457D02*
X3042Y1457D01*
X3100Y1457D02*
X3142Y1457D01*
X3200Y1457D02*
X3242Y1457D01*
X3300Y1457D02*
X3342Y1457D01*
X3400Y1457D02*
X3442Y1457D01*
X3500Y1457D02*
X3542Y1457D01*
X2199Y1456D02*
X2244Y1456D01*
X2299Y1456D02*
X2344Y1456D01*
X2399Y1456D02*
X2444Y1456D01*
X2499Y1456D02*
X2544Y1456D01*
X2599Y1456D02*
X2644Y1456D01*
X2699Y1456D02*
X2744Y1456D01*
X2799Y1456D02*
X2844Y1456D01*
X2899Y1456D02*
X2944Y1456D01*
X2999Y1456D02*
X3044Y1456D01*
X3099Y1456D02*
X3144Y1456D01*
X3199Y1456D02*
X3244Y1456D01*
X3299Y1456D02*
X3344Y1456D01*
X3399Y1456D02*
X3444Y1456D01*
X3499Y1456D02*
X3544Y1456D01*
X2198Y1455D02*
X2245Y1455D01*
X2298Y1455D02*
X2345Y1455D01*
X2398Y1455D02*
X2445Y1455D01*
X2498Y1455D02*
X2545Y1455D01*
X2598Y1455D02*
X2645Y1455D01*
X2697Y1455D02*
X2745Y1455D01*
X2797Y1455D02*
X2845Y1455D01*
X2897Y1455D02*
X2945Y1455D01*
X2997Y1455D02*
X3045Y1455D01*
X3097Y1455D02*
X3145Y1455D01*
X3197Y1455D02*
X3245Y1455D01*
X3297Y1455D02*
X3345Y1455D01*
X3397Y1455D02*
X3445Y1455D01*
X3497Y1455D02*
X3545Y1455D01*
X2196Y1454D02*
X2247Y1454D01*
X2296Y1454D02*
X2347Y1454D01*
X2396Y1454D02*
X2447Y1454D01*
X2496Y1454D02*
X2547Y1454D01*
X2596Y1454D02*
X2647Y1454D01*
X2696Y1454D02*
X2747Y1454D01*
X2796Y1454D02*
X2847Y1454D01*
X2896Y1454D02*
X2947Y1454D01*
X2996Y1454D02*
X3047Y1454D01*
X3096Y1454D02*
X3147Y1454D01*
X3196Y1454D02*
X3247Y1454D01*
X3296Y1454D02*
X3347Y1454D01*
X3396Y1454D02*
X3446Y1454D01*
X3496Y1454D02*
X3546Y1454D01*
X2195Y1453D02*
X2248Y1453D01*
X2295Y1453D02*
X2348Y1453D01*
X2395Y1453D02*
X2448Y1453D01*
X2495Y1453D02*
X2548Y1453D01*
X2595Y1453D02*
X2648Y1453D01*
X2695Y1453D02*
X2748Y1453D01*
X2795Y1453D02*
X2848Y1453D01*
X2895Y1453D02*
X2948Y1453D01*
X2995Y1453D02*
X3048Y1453D01*
X3095Y1453D02*
X3148Y1453D01*
X3195Y1453D02*
X3248Y1453D01*
X3295Y1453D02*
X3348Y1453D01*
X3395Y1453D02*
X3448Y1453D01*
X3495Y1453D02*
X3548Y1453D01*
X2194Y1452D02*
X2249Y1452D01*
X2294Y1452D02*
X2349Y1452D01*
X2394Y1452D02*
X2449Y1452D01*
X2494Y1452D02*
X2549Y1452D01*
X2594Y1452D02*
X2649Y1452D01*
X2694Y1452D02*
X2749Y1452D01*
X2794Y1452D02*
X2849Y1452D01*
X2894Y1452D02*
X2949Y1452D01*
X2994Y1452D02*
X3049Y1452D01*
X3094Y1452D02*
X3149Y1452D01*
X3194Y1452D02*
X3249Y1452D01*
X3294Y1452D02*
X3349Y1452D01*
X3394Y1452D02*
X3449Y1452D01*
X3494Y1452D02*
X3549Y1452D01*
X2193Y1451D02*
X2250Y1451D01*
X2293Y1451D02*
X2350Y1451D01*
X2393Y1451D02*
X2450Y1451D01*
X2493Y1451D02*
X2550Y1451D01*
X2593Y1451D02*
X2650Y1451D01*
X2693Y1451D02*
X2750Y1451D01*
X2793Y1451D02*
X2850Y1451D01*
X2893Y1451D02*
X2950Y1451D01*
X2993Y1451D02*
X3050Y1451D01*
X3093Y1451D02*
X3150Y1451D01*
X3193Y1451D02*
X3250Y1451D01*
X3293Y1451D02*
X3350Y1451D01*
X3393Y1451D02*
X3450Y1451D01*
X3493Y1451D02*
X3550Y1451D01*
X2192Y1450D02*
X2251Y1450D01*
X2292Y1450D02*
X2351Y1450D01*
X2392Y1450D02*
X2451Y1450D01*
X2492Y1450D02*
X2551Y1450D01*
X2592Y1450D02*
X2651Y1450D01*
X2692Y1450D02*
X2751Y1450D01*
X2792Y1450D02*
X2851Y1450D01*
X2892Y1450D02*
X2951Y1450D01*
X2992Y1450D02*
X3051Y1450D01*
X3092Y1450D02*
X3151Y1450D01*
X3192Y1450D02*
X3251Y1450D01*
X3292Y1450D02*
X3351Y1450D01*
X3392Y1450D02*
X3451Y1450D01*
X3492Y1450D02*
X3551Y1450D01*
X2191Y1449D02*
X2252Y1449D01*
X2291Y1449D02*
X2352Y1449D01*
X2391Y1449D02*
X2452Y1449D01*
X2491Y1449D02*
X2552Y1449D01*
X2591Y1449D02*
X2652Y1449D01*
X2691Y1449D02*
X2752Y1449D01*
X2791Y1449D02*
X2852Y1449D01*
X2891Y1449D02*
X2952Y1449D01*
X2991Y1449D02*
X3052Y1449D01*
X3091Y1449D02*
X3152Y1449D01*
X3191Y1449D02*
X3252Y1449D01*
X3291Y1449D02*
X3351Y1449D01*
X3391Y1449D02*
X3451Y1449D01*
X3491Y1449D02*
X3551Y1449D01*
X2190Y1448D02*
X2252Y1448D01*
X2290Y1448D02*
X2352Y1448D01*
X2390Y1448D02*
X2452Y1448D01*
X2490Y1448D02*
X2552Y1448D01*
X2590Y1448D02*
X2652Y1448D01*
X2690Y1448D02*
X2752Y1448D01*
X2790Y1448D02*
X2852Y1448D01*
X2890Y1448D02*
X2952Y1448D01*
X2990Y1448D02*
X3052Y1448D01*
X3090Y1448D02*
X3152Y1448D01*
X3190Y1448D02*
X3252Y1448D01*
X3290Y1448D02*
X3352Y1448D01*
X3390Y1448D02*
X3452Y1448D01*
X3490Y1448D02*
X3552Y1448D01*
X2190Y1447D02*
X2253Y1447D01*
X2290Y1447D02*
X2353Y1447D01*
X2390Y1447D02*
X2453Y1447D01*
X2490Y1447D02*
X2553Y1447D01*
X2590Y1447D02*
X2653Y1447D01*
X2690Y1447D02*
X2753Y1447D01*
X2790Y1447D02*
X2853Y1447D01*
X2890Y1447D02*
X2953Y1447D01*
X2990Y1447D02*
X3053Y1447D01*
X3090Y1447D02*
X3153Y1447D01*
X3190Y1447D02*
X3253Y1447D01*
X3290Y1447D02*
X3353Y1447D01*
X3390Y1447D02*
X3453Y1447D01*
X3490Y1447D02*
X3553Y1447D01*
X2189Y1446D02*
X2254Y1446D01*
X2289Y1446D02*
X2354Y1446D01*
X2389Y1446D02*
X2454Y1446D01*
X2489Y1446D02*
X2554Y1446D01*
X2589Y1446D02*
X2654Y1446D01*
X2689Y1446D02*
X2754Y1446D01*
X2789Y1446D02*
X2854Y1446D01*
X2889Y1446D02*
X2954Y1446D01*
X2989Y1446D02*
X3054Y1446D01*
X3089Y1446D02*
X3154Y1446D01*
X3189Y1446D02*
X3254Y1446D01*
X3289Y1446D02*
X3354Y1446D01*
X3389Y1446D02*
X3454Y1446D01*
X3489Y1446D02*
X3554Y1446D01*
X2188Y1445D02*
X2255Y1445D01*
X2288Y1445D02*
X2354Y1445D01*
X2388Y1445D02*
X2454Y1445D01*
X2488Y1445D02*
X2554Y1445D01*
X2588Y1445D02*
X2654Y1445D01*
X2688Y1445D02*
X2754Y1445D01*
X2788Y1445D02*
X2854Y1445D01*
X2888Y1445D02*
X2954Y1445D01*
X2988Y1445D02*
X3054Y1445D01*
X3088Y1445D02*
X3154Y1445D01*
X3188Y1445D02*
X3254Y1445D01*
X3288Y1445D02*
X3354Y1445D01*
X3388Y1445D02*
X3454Y1445D01*
X3488Y1445D02*
X3554Y1445D01*
X2188Y1444D02*
X2255Y1444D01*
X2288Y1444D02*
X2355Y1444D01*
X2388Y1444D02*
X2455Y1444D01*
X2488Y1444D02*
X2555Y1444D01*
X2588Y1444D02*
X2655Y1444D01*
X2688Y1444D02*
X2755Y1444D01*
X2788Y1444D02*
X2855Y1444D01*
X2888Y1444D02*
X2955Y1444D01*
X2988Y1444D02*
X3055Y1444D01*
X3088Y1444D02*
X3155Y1444D01*
X3188Y1444D02*
X3255Y1444D01*
X3288Y1444D02*
X3355Y1444D01*
X3388Y1444D02*
X3455Y1444D01*
X3488Y1444D02*
X3555Y1444D01*
X2187Y1443D02*
X2256Y1443D01*
X2287Y1443D02*
X2356Y1443D01*
X2387Y1443D02*
X2456Y1443D01*
X2487Y1443D02*
X2556Y1443D01*
X2587Y1443D02*
X2656Y1443D01*
X2687Y1443D02*
X2756Y1443D01*
X2787Y1443D02*
X2856Y1443D01*
X2887Y1443D02*
X2956Y1443D01*
X2987Y1443D02*
X3056Y1443D01*
X3087Y1443D02*
X3156Y1443D01*
X3187Y1443D02*
X3256Y1443D01*
X3287Y1443D02*
X3356Y1443D01*
X3387Y1443D02*
X3456Y1443D01*
X3487Y1443D02*
X3556Y1443D01*
X2187Y1442D02*
X2256Y1442D01*
X2287Y1442D02*
X2356Y1442D01*
X2387Y1442D02*
X2456Y1442D01*
X2487Y1442D02*
X2556Y1442D01*
X2587Y1442D02*
X2656Y1442D01*
X2687Y1442D02*
X2756Y1442D01*
X2787Y1442D02*
X2856Y1442D01*
X2886Y1442D02*
X2956Y1442D01*
X2986Y1442D02*
X3056Y1442D01*
X3086Y1442D02*
X3156Y1442D01*
X3186Y1442D02*
X3256Y1442D01*
X3286Y1442D02*
X3356Y1442D01*
X3386Y1442D02*
X3456Y1442D01*
X3486Y1442D02*
X3556Y1442D01*
X2186Y1441D02*
X2257Y1441D01*
X2286Y1441D02*
X2357Y1441D01*
X2386Y1441D02*
X2457Y1441D01*
X2486Y1441D02*
X2557Y1441D01*
X2586Y1441D02*
X2657Y1441D01*
X2686Y1441D02*
X2757Y1441D01*
X2786Y1441D02*
X2857Y1441D01*
X2886Y1441D02*
X2957Y1441D01*
X2986Y1441D02*
X3057Y1441D01*
X3086Y1441D02*
X3157Y1441D01*
X3186Y1441D02*
X3257Y1441D01*
X3286Y1441D02*
X3357Y1441D01*
X3386Y1441D02*
X3457Y1441D01*
X3486Y1441D02*
X3557Y1441D01*
X2186Y1440D02*
X2257Y1440D01*
X2286Y1440D02*
X2357Y1440D01*
X2386Y1440D02*
X2457Y1440D01*
X2486Y1440D02*
X2557Y1440D01*
X2586Y1440D02*
X2657Y1440D01*
X2686Y1440D02*
X2757Y1440D01*
X2786Y1440D02*
X2857Y1440D01*
X2886Y1440D02*
X2957Y1440D01*
X2985Y1440D02*
X3057Y1440D01*
X3085Y1440D02*
X3157Y1440D01*
X3185Y1440D02*
X3257Y1440D01*
X3285Y1440D02*
X3357Y1440D01*
X3385Y1440D02*
X3457Y1440D01*
X3485Y1440D02*
X3557Y1440D01*
X2185Y1439D02*
X2258Y1439D01*
X2285Y1439D02*
X2358Y1439D01*
X2385Y1439D02*
X2458Y1439D01*
X2485Y1439D02*
X2558Y1439D01*
X2585Y1439D02*
X2658Y1439D01*
X2685Y1439D02*
X2758Y1439D01*
X2785Y1439D02*
X2858Y1439D01*
X2885Y1439D02*
X2958Y1439D01*
X2985Y1439D02*
X3058Y1439D01*
X3085Y1439D02*
X3158Y1439D01*
X3185Y1439D02*
X3258Y1439D01*
X3285Y1439D02*
X3358Y1439D01*
X3385Y1439D02*
X3458Y1439D01*
X3485Y1439D02*
X3558Y1439D01*
X2185Y1438D02*
X2258Y1438D01*
X2285Y1438D02*
X2358Y1438D01*
X2385Y1438D02*
X2458Y1438D01*
X2485Y1438D02*
X2558Y1438D01*
X2585Y1438D02*
X2658Y1438D01*
X2685Y1438D02*
X2758Y1438D01*
X2785Y1438D02*
X2858Y1438D01*
X2885Y1438D02*
X2958Y1438D01*
X2985Y1438D02*
X3058Y1438D01*
X3085Y1438D02*
X3158Y1438D01*
X3185Y1438D02*
X3258Y1438D01*
X3285Y1438D02*
X3358Y1438D01*
X3385Y1438D02*
X3458Y1438D01*
X3485Y1438D02*
X3558Y1438D01*
X2184Y1437D02*
X2259Y1437D01*
X2284Y1437D02*
X2358Y1437D01*
X2384Y1437D02*
X2458Y1437D01*
X2484Y1437D02*
X2558Y1437D01*
X2584Y1437D02*
X2658Y1437D01*
X2684Y1437D02*
X2758Y1437D01*
X2784Y1437D02*
X2858Y1437D01*
X2884Y1437D02*
X2958Y1437D01*
X2984Y1437D02*
X3058Y1437D01*
X3084Y1437D02*
X3158Y1437D01*
X3184Y1437D02*
X3258Y1437D01*
X3284Y1437D02*
X3358Y1437D01*
X3384Y1437D02*
X3458Y1437D01*
X3484Y1437D02*
X3558Y1437D01*
X2184Y1436D02*
X2259Y1436D01*
X2284Y1436D02*
X2359Y1436D01*
X2384Y1436D02*
X2459Y1436D01*
X2484Y1436D02*
X2559Y1436D01*
X2584Y1436D02*
X2659Y1436D01*
X2684Y1436D02*
X2759Y1436D01*
X2784Y1436D02*
X2859Y1436D01*
X2884Y1436D02*
X2959Y1436D01*
X2984Y1436D02*
X3059Y1436D01*
X3084Y1436D02*
X3159Y1436D01*
X3184Y1436D02*
X3259Y1436D01*
X3284Y1436D02*
X3359Y1436D01*
X3384Y1436D02*
X3459Y1436D01*
X3484Y1436D02*
X3559Y1436D01*
X2184Y1435D02*
X2259Y1435D01*
X2284Y1435D02*
X2359Y1435D01*
X2384Y1435D02*
X2459Y1435D01*
X2484Y1435D02*
X2559Y1435D01*
X2584Y1435D02*
X2659Y1435D01*
X2684Y1435D02*
X2759Y1435D01*
X2784Y1435D02*
X2859Y1435D01*
X2884Y1435D02*
X2959Y1435D01*
X2984Y1435D02*
X3059Y1435D01*
X3084Y1435D02*
X3159Y1435D01*
X3184Y1435D02*
X3259Y1435D01*
X3284Y1435D02*
X3359Y1435D01*
X3384Y1435D02*
X3459Y1435D01*
X3484Y1435D02*
X3559Y1435D01*
X2183Y1434D02*
X2259Y1434D01*
X2283Y1434D02*
X2359Y1434D01*
X2383Y1434D02*
X2459Y1434D01*
X2483Y1434D02*
X2559Y1434D01*
X2583Y1434D02*
X2659Y1434D01*
X2683Y1434D02*
X2759Y1434D01*
X2783Y1434D02*
X2859Y1434D01*
X2883Y1434D02*
X2959Y1434D01*
X2983Y1434D02*
X3059Y1434D01*
X3083Y1434D02*
X3159Y1434D01*
X3183Y1434D02*
X3259Y1434D01*
X3283Y1434D02*
X3359Y1434D01*
X3383Y1434D02*
X3459Y1434D01*
X3483Y1434D02*
X3559Y1434D01*
X2183Y1433D02*
X2260Y1433D01*
X2283Y1433D02*
X2360Y1433D01*
X2383Y1433D02*
X2460Y1433D01*
X2483Y1433D02*
X2560Y1433D01*
X2583Y1433D02*
X2660Y1433D01*
X2683Y1433D02*
X2760Y1433D01*
X2783Y1433D02*
X2860Y1433D01*
X2883Y1433D02*
X2960Y1433D01*
X2983Y1433D02*
X3060Y1433D01*
X3083Y1433D02*
X3160Y1433D01*
X3183Y1433D02*
X3260Y1433D01*
X3283Y1433D02*
X3360Y1433D01*
X3383Y1433D02*
X3460Y1433D01*
X3483Y1433D02*
X3560Y1433D01*
X2183Y1432D02*
X2260Y1432D01*
X2283Y1432D02*
X2360Y1432D01*
X2383Y1432D02*
X2460Y1432D01*
X2483Y1432D02*
X2560Y1432D01*
X2583Y1432D02*
X2660Y1432D01*
X2683Y1432D02*
X2760Y1432D01*
X2783Y1432D02*
X2860Y1432D01*
X2883Y1432D02*
X2960Y1432D01*
X2983Y1432D02*
X3060Y1432D01*
X3083Y1432D02*
X3160Y1432D01*
X3183Y1432D02*
X3260Y1432D01*
X3283Y1432D02*
X3360Y1432D01*
X3383Y1432D02*
X3460Y1432D01*
X3483Y1432D02*
X3560Y1432D01*
X2183Y1431D02*
X2260Y1431D01*
X2283Y1431D02*
X2360Y1431D01*
X2383Y1431D02*
X2460Y1431D01*
X2483Y1431D02*
X2560Y1431D01*
X2583Y1431D02*
X2660Y1431D01*
X2683Y1431D02*
X2760Y1431D01*
X2783Y1431D02*
X2860Y1431D01*
X2883Y1431D02*
X2960Y1431D01*
X2983Y1431D02*
X3060Y1431D01*
X3083Y1431D02*
X3160Y1431D01*
X3183Y1431D02*
X3260Y1431D01*
X3283Y1431D02*
X3360Y1431D01*
X3383Y1431D02*
X3460Y1431D01*
X3483Y1431D02*
X3560Y1431D01*
X2183Y1430D02*
X2260Y1430D01*
X2283Y1430D02*
X2360Y1430D01*
X2383Y1430D02*
X2460Y1430D01*
X2483Y1430D02*
X2560Y1430D01*
X2583Y1430D02*
X2660Y1430D01*
X2683Y1430D02*
X2760Y1430D01*
X2783Y1430D02*
X2860Y1430D01*
X2883Y1430D02*
X2960Y1430D01*
X2983Y1430D02*
X3060Y1430D01*
X3082Y1430D02*
X3160Y1430D01*
X3182Y1430D02*
X3260Y1430D01*
X3282Y1430D02*
X3360Y1430D01*
X3382Y1430D02*
X3460Y1430D01*
X3482Y1430D02*
X3560Y1430D01*
X2182Y1429D02*
X2260Y1429D01*
X2282Y1429D02*
X2360Y1429D01*
X2382Y1429D02*
X2460Y1429D01*
X2482Y1429D02*
X2560Y1429D01*
X2582Y1429D02*
X2660Y1429D01*
X2682Y1429D02*
X2760Y1429D01*
X2782Y1429D02*
X2860Y1429D01*
X2882Y1429D02*
X2960Y1429D01*
X2982Y1429D02*
X3060Y1429D01*
X3082Y1429D02*
X3160Y1429D01*
X3182Y1429D02*
X3260Y1429D01*
X3282Y1429D02*
X3360Y1429D01*
X3382Y1429D02*
X3460Y1429D01*
X3482Y1429D02*
X3560Y1429D01*
X2182Y1428D02*
X2261Y1428D01*
X2282Y1428D02*
X2361Y1428D01*
X2382Y1428D02*
X2461Y1428D01*
X2482Y1428D02*
X2561Y1428D01*
X2582Y1428D02*
X2661Y1428D01*
X2682Y1428D02*
X2761Y1428D01*
X2782Y1428D02*
X2861Y1428D01*
X2882Y1428D02*
X2961Y1428D01*
X2982Y1428D02*
X3061Y1428D01*
X3082Y1428D02*
X3160Y1428D01*
X3182Y1428D02*
X3260Y1428D01*
X3282Y1428D02*
X3360Y1428D01*
X3382Y1428D02*
X3460Y1428D01*
X3482Y1428D02*
X3560Y1428D01*
X2182Y1427D02*
X2261Y1427D01*
X2282Y1427D02*
X2361Y1427D01*
X2382Y1427D02*
X2461Y1427D01*
X2482Y1427D02*
X2561Y1427D01*
X2582Y1427D02*
X2661Y1427D01*
X2682Y1427D02*
X2761Y1427D01*
X2782Y1427D02*
X2861Y1427D01*
X2882Y1427D02*
X2961Y1427D01*
X2982Y1427D02*
X3061Y1427D01*
X3082Y1427D02*
X3161Y1427D01*
X3182Y1427D02*
X3261Y1427D01*
X3282Y1427D02*
X3361Y1427D01*
X3382Y1427D02*
X3461Y1427D01*
X3482Y1427D02*
X3561Y1427D01*
X2182Y1426D02*
X2261Y1426D01*
X2282Y1426D02*
X2361Y1426D01*
X2382Y1426D02*
X2461Y1426D01*
X2482Y1426D02*
X2561Y1426D01*
X2582Y1426D02*
X2661Y1426D01*
X2682Y1426D02*
X2761Y1426D01*
X2782Y1426D02*
X2861Y1426D01*
X2882Y1426D02*
X2961Y1426D01*
X2982Y1426D02*
X3061Y1426D01*
X3082Y1426D02*
X3161Y1426D01*
X3182Y1426D02*
X3261Y1426D01*
X3282Y1426D02*
X3361Y1426D01*
X3382Y1426D02*
X3461Y1426D01*
X3482Y1426D02*
X3561Y1426D01*
X2182Y1425D02*
X2261Y1425D01*
X2282Y1425D02*
X2361Y1425D01*
X2382Y1425D02*
X2461Y1425D01*
X2482Y1425D02*
X2561Y1425D01*
X2582Y1425D02*
X2661Y1425D01*
X2682Y1425D02*
X2761Y1425D01*
X2782Y1425D02*
X2861Y1425D01*
X2882Y1425D02*
X2961Y1425D01*
X2982Y1425D02*
X3061Y1425D01*
X3082Y1425D02*
X3161Y1425D01*
X3182Y1425D02*
X3261Y1425D01*
X3282Y1425D02*
X3361Y1425D01*
X3382Y1425D02*
X3461Y1425D01*
X3482Y1425D02*
X3561Y1425D01*
X2182Y1424D02*
X2261Y1424D01*
X2282Y1424D02*
X2361Y1424D01*
X2382Y1424D02*
X2461Y1424D01*
X2482Y1424D02*
X2561Y1424D01*
X2582Y1424D02*
X2661Y1424D01*
X2682Y1424D02*
X2761Y1424D01*
X2782Y1424D02*
X2861Y1424D01*
X2882Y1424D02*
X2961Y1424D01*
X2982Y1424D02*
X3061Y1424D01*
X3082Y1424D02*
X3161Y1424D01*
X3182Y1424D02*
X3261Y1424D01*
X3282Y1424D02*
X3361Y1424D01*
X3382Y1424D02*
X3461Y1424D01*
X3482Y1424D02*
X3561Y1424D01*
X2182Y1423D02*
X2261Y1423D01*
X2282Y1423D02*
X2361Y1423D01*
X2382Y1423D02*
X2461Y1423D01*
X2482Y1423D02*
X2561Y1423D01*
X2582Y1423D02*
X2661Y1423D01*
X2682Y1423D02*
X2761Y1423D01*
X2782Y1423D02*
X2861Y1423D01*
X2882Y1423D02*
X2961Y1423D01*
X2982Y1423D02*
X3061Y1423D01*
X3082Y1423D02*
X3161Y1423D01*
X3182Y1423D02*
X3261Y1423D01*
X3282Y1423D02*
X3361Y1423D01*
X3382Y1423D02*
X3461Y1423D01*
X3482Y1423D02*
X3561Y1423D01*
X2182Y1422D02*
X2261Y1422D01*
X2282Y1422D02*
X2361Y1422D01*
X2382Y1422D02*
X2461Y1422D01*
X2482Y1422D02*
X2561Y1422D01*
X2582Y1422D02*
X2661Y1422D01*
X2682Y1422D02*
X2761Y1422D01*
X2782Y1422D02*
X2861Y1422D01*
X2882Y1422D02*
X2961Y1422D01*
X2982Y1422D02*
X3061Y1422D01*
X3082Y1422D02*
X3161Y1422D01*
X3182Y1422D02*
X3261Y1422D01*
X3282Y1422D02*
X3361Y1422D01*
X3382Y1422D02*
X3461Y1422D01*
X3482Y1422D02*
X3561Y1422D01*
X2182Y1421D02*
X2261Y1421D01*
X2282Y1421D02*
X2361Y1421D01*
X2382Y1421D02*
X2461Y1421D01*
X2482Y1421D02*
X2561Y1421D01*
X2582Y1421D02*
X2661Y1421D01*
X2682Y1421D02*
X2761Y1421D01*
X2782Y1421D02*
X2861Y1421D01*
X2882Y1421D02*
X2961Y1421D01*
X2982Y1421D02*
X3061Y1421D01*
X3082Y1421D02*
X3161Y1421D01*
X3182Y1421D02*
X3261Y1421D01*
X3282Y1421D02*
X3361Y1421D01*
X3382Y1421D02*
X3461Y1421D01*
X3482Y1421D02*
X3561Y1421D01*
X2182Y1420D02*
X2261Y1420D01*
X2282Y1420D02*
X2361Y1420D01*
X2382Y1420D02*
X2461Y1420D01*
X2482Y1420D02*
X2561Y1420D01*
X2582Y1420D02*
X2661Y1420D01*
X2682Y1420D02*
X2761Y1420D01*
X2782Y1420D02*
X2861Y1420D01*
X2882Y1420D02*
X2961Y1420D01*
X2982Y1420D02*
X3061Y1420D01*
X3082Y1420D02*
X3161Y1420D01*
X3182Y1420D02*
X3261Y1420D01*
X3282Y1420D02*
X3361Y1420D01*
X3382Y1420D02*
X3461Y1420D01*
X3482Y1420D02*
X3561Y1420D01*
X2182Y1419D02*
X2261Y1419D01*
X2282Y1419D02*
X2361Y1419D01*
X2382Y1419D02*
X2461Y1419D01*
X2482Y1419D02*
X2561Y1419D01*
X2582Y1419D02*
X2661Y1419D01*
X2682Y1419D02*
X2761Y1419D01*
X2782Y1419D02*
X2861Y1419D01*
X2882Y1419D02*
X2961Y1419D01*
X2982Y1419D02*
X3061Y1419D01*
X3082Y1419D02*
X3161Y1419D01*
X3182Y1419D02*
X3261Y1419D01*
X3282Y1419D02*
X3361Y1419D01*
X3382Y1419D02*
X3460Y1419D01*
X3482Y1419D02*
X3560Y1419D01*
X2182Y1418D02*
X2260Y1418D01*
X2282Y1418D02*
X2360Y1418D01*
X2382Y1418D02*
X2460Y1418D01*
X2482Y1418D02*
X2560Y1418D01*
X2582Y1418D02*
X2660Y1418D01*
X2682Y1418D02*
X2760Y1418D01*
X2782Y1418D02*
X2860Y1418D01*
X2882Y1418D02*
X2960Y1418D01*
X2982Y1418D02*
X3060Y1418D01*
X3082Y1418D02*
X3160Y1418D01*
X3182Y1418D02*
X3260Y1418D01*
X3282Y1418D02*
X3360Y1418D01*
X3382Y1418D02*
X3460Y1418D01*
X3482Y1418D02*
X3560Y1418D01*
X2183Y1417D02*
X2260Y1417D01*
X2283Y1417D02*
X2360Y1417D01*
X2383Y1417D02*
X2460Y1417D01*
X2483Y1417D02*
X2560Y1417D01*
X2583Y1417D02*
X2660Y1417D01*
X2683Y1417D02*
X2760Y1417D01*
X2782Y1417D02*
X2860Y1417D01*
X2882Y1417D02*
X2960Y1417D01*
X2982Y1417D02*
X3060Y1417D01*
X3082Y1417D02*
X3160Y1417D01*
X3182Y1417D02*
X3260Y1417D01*
X3282Y1417D02*
X3360Y1417D01*
X3382Y1417D02*
X3460Y1417D01*
X3482Y1417D02*
X3560Y1417D01*
X2183Y1416D02*
X2260Y1416D01*
X2283Y1416D02*
X2360Y1416D01*
X2383Y1416D02*
X2460Y1416D01*
X2483Y1416D02*
X2560Y1416D01*
X2583Y1416D02*
X2660Y1416D01*
X2683Y1416D02*
X2760Y1416D01*
X2783Y1416D02*
X2860Y1416D01*
X2883Y1416D02*
X2960Y1416D01*
X2983Y1416D02*
X3060Y1416D01*
X3083Y1416D02*
X3160Y1416D01*
X3183Y1416D02*
X3260Y1416D01*
X3283Y1416D02*
X3360Y1416D01*
X3383Y1416D02*
X3460Y1416D01*
X3483Y1416D02*
X3560Y1416D01*
X2183Y1415D02*
X2260Y1415D01*
X2283Y1415D02*
X2360Y1415D01*
X2383Y1415D02*
X2460Y1415D01*
X2483Y1415D02*
X2560Y1415D01*
X2583Y1415D02*
X2660Y1415D01*
X2683Y1415D02*
X2760Y1415D01*
X2783Y1415D02*
X2860Y1415D01*
X2883Y1415D02*
X2960Y1415D01*
X2983Y1415D02*
X3060Y1415D01*
X3083Y1415D02*
X3160Y1415D01*
X3183Y1415D02*
X3260Y1415D01*
X3283Y1415D02*
X3360Y1415D01*
X3383Y1415D02*
X3460Y1415D01*
X3483Y1415D02*
X3560Y1415D01*
X2183Y1414D02*
X2260Y1414D01*
X2283Y1414D02*
X2360Y1414D01*
X2383Y1414D02*
X2460Y1414D01*
X2483Y1414D02*
X2560Y1414D01*
X2583Y1414D02*
X2660Y1414D01*
X2683Y1414D02*
X2760Y1414D01*
X2783Y1414D02*
X2860Y1414D01*
X2883Y1414D02*
X2960Y1414D01*
X2983Y1414D02*
X3060Y1414D01*
X3083Y1414D02*
X3160Y1414D01*
X3183Y1414D02*
X3260Y1414D01*
X3283Y1414D02*
X3360Y1414D01*
X3383Y1414D02*
X3460Y1414D01*
X3483Y1414D02*
X3560Y1414D01*
X2183Y1413D02*
X2259Y1413D01*
X2283Y1413D02*
X2359Y1413D01*
X2383Y1413D02*
X2459Y1413D01*
X2483Y1413D02*
X2559Y1413D01*
X2583Y1413D02*
X2659Y1413D01*
X2683Y1413D02*
X2759Y1413D01*
X2783Y1413D02*
X2859Y1413D01*
X2883Y1413D02*
X2959Y1413D01*
X2983Y1413D02*
X3059Y1413D01*
X3083Y1413D02*
X3159Y1413D01*
X3183Y1413D02*
X3259Y1413D01*
X3283Y1413D02*
X3359Y1413D01*
X3383Y1413D02*
X3459Y1413D01*
X3483Y1413D02*
X3559Y1413D01*
X2184Y1412D02*
X2259Y1412D01*
X2284Y1412D02*
X2359Y1412D01*
X2384Y1412D02*
X2459Y1412D01*
X2484Y1412D02*
X2559Y1412D01*
X2584Y1412D02*
X2659Y1412D01*
X2684Y1412D02*
X2759Y1412D01*
X2784Y1412D02*
X2859Y1412D01*
X2884Y1412D02*
X2959Y1412D01*
X2984Y1412D02*
X3059Y1412D01*
X3084Y1412D02*
X3159Y1412D01*
X3184Y1412D02*
X3259Y1412D01*
X3284Y1412D02*
X3359Y1412D01*
X3384Y1412D02*
X3459Y1412D01*
X3484Y1412D02*
X3559Y1412D01*
X2184Y1411D02*
X2259Y1411D01*
X2284Y1411D02*
X2359Y1411D01*
X2384Y1411D02*
X2459Y1411D01*
X2484Y1411D02*
X2559Y1411D01*
X2584Y1411D02*
X2659Y1411D01*
X2684Y1411D02*
X2759Y1411D01*
X2784Y1411D02*
X2859Y1411D01*
X2884Y1411D02*
X2959Y1411D01*
X2984Y1411D02*
X3059Y1411D01*
X3084Y1411D02*
X3159Y1411D01*
X3184Y1411D02*
X3259Y1411D01*
X3284Y1411D02*
X3359Y1411D01*
X3384Y1411D02*
X3459Y1411D01*
X3484Y1411D02*
X3559Y1411D01*
X2184Y1410D02*
X2259Y1410D01*
X2284Y1410D02*
X2359Y1410D01*
X2384Y1410D02*
X2459Y1410D01*
X2484Y1410D02*
X2559Y1410D01*
X2584Y1410D02*
X2659Y1410D01*
X2684Y1410D02*
X2759Y1410D01*
X2784Y1410D02*
X2858Y1410D01*
X2884Y1410D02*
X2958Y1410D01*
X2984Y1410D02*
X3058Y1410D01*
X3084Y1410D02*
X3158Y1410D01*
X3184Y1410D02*
X3258Y1410D01*
X3284Y1410D02*
X3358Y1410D01*
X3384Y1410D02*
X3458Y1410D01*
X3484Y1410D02*
X3558Y1410D01*
X2185Y1409D02*
X2258Y1409D01*
X2285Y1409D02*
X2358Y1409D01*
X2385Y1409D02*
X2458Y1409D01*
X2485Y1409D02*
X2558Y1409D01*
X2585Y1409D02*
X2658Y1409D01*
X2685Y1409D02*
X2758Y1409D01*
X2785Y1409D02*
X2858Y1409D01*
X2885Y1409D02*
X2958Y1409D01*
X2985Y1409D02*
X3058Y1409D01*
X3085Y1409D02*
X3158Y1409D01*
X3185Y1409D02*
X3258Y1409D01*
X3285Y1409D02*
X3358Y1409D01*
X3385Y1409D02*
X3458Y1409D01*
X3485Y1409D02*
X3558Y1409D01*
X2185Y1408D02*
X2258Y1408D01*
X2285Y1408D02*
X2358Y1408D01*
X2385Y1408D02*
X2458Y1408D01*
X2485Y1408D02*
X2558Y1408D01*
X2585Y1408D02*
X2658Y1408D01*
X2685Y1408D02*
X2758Y1408D01*
X2785Y1408D02*
X2858Y1408D01*
X2885Y1408D02*
X2958Y1408D01*
X2985Y1408D02*
X3058Y1408D01*
X3085Y1408D02*
X3158Y1408D01*
X3185Y1408D02*
X3258Y1408D01*
X3285Y1408D02*
X3358Y1408D01*
X3385Y1408D02*
X3458Y1408D01*
X3485Y1408D02*
X3558Y1408D01*
X2186Y1407D02*
X2257Y1407D01*
X2286Y1407D02*
X2357Y1407D01*
X2385Y1407D02*
X2457Y1407D01*
X2485Y1407D02*
X2557Y1407D01*
X2585Y1407D02*
X2657Y1407D01*
X2685Y1407D02*
X2757Y1407D01*
X2785Y1407D02*
X2857Y1407D01*
X2885Y1407D02*
X2957Y1407D01*
X2985Y1407D02*
X3057Y1407D01*
X3085Y1407D02*
X3157Y1407D01*
X3185Y1407D02*
X3257Y1407D01*
X3285Y1407D02*
X3357Y1407D01*
X3385Y1407D02*
X3457Y1407D01*
X3485Y1407D02*
X3557Y1407D01*
X2186Y1406D02*
X2257Y1406D01*
X2286Y1406D02*
X2357Y1406D01*
X2386Y1406D02*
X2457Y1406D01*
X2486Y1406D02*
X2557Y1406D01*
X2586Y1406D02*
X2657Y1406D01*
X2686Y1406D02*
X2757Y1406D01*
X2786Y1406D02*
X2857Y1406D01*
X2886Y1406D02*
X2957Y1406D01*
X2986Y1406D02*
X3057Y1406D01*
X3086Y1406D02*
X3157Y1406D01*
X3186Y1406D02*
X3257Y1406D01*
X3286Y1406D02*
X3357Y1406D01*
X3386Y1406D02*
X3457Y1406D01*
X3486Y1406D02*
X3557Y1406D01*
X2186Y1405D02*
X2256Y1405D01*
X2286Y1405D02*
X2356Y1405D01*
X2386Y1405D02*
X2456Y1405D01*
X2486Y1405D02*
X2556Y1405D01*
X2586Y1405D02*
X2656Y1405D01*
X2686Y1405D02*
X2756Y1405D01*
X2786Y1405D02*
X2856Y1405D01*
X2886Y1405D02*
X2956Y1405D01*
X2986Y1405D02*
X3056Y1405D01*
X3086Y1405D02*
X3156Y1405D01*
X3186Y1405D02*
X3256Y1405D01*
X3286Y1405D02*
X3356Y1405D01*
X3386Y1405D02*
X3456Y1405D01*
X3486Y1405D02*
X3556Y1405D01*
X2187Y1404D02*
X2256Y1404D01*
X2287Y1404D02*
X2356Y1404D01*
X2387Y1404D02*
X2456Y1404D01*
X2487Y1404D02*
X2556Y1404D01*
X2587Y1404D02*
X2656Y1404D01*
X2687Y1404D02*
X2756Y1404D01*
X2787Y1404D02*
X2856Y1404D01*
X2887Y1404D02*
X2956Y1404D01*
X2987Y1404D02*
X3056Y1404D01*
X3087Y1404D02*
X3156Y1404D01*
X3187Y1404D02*
X3256Y1404D01*
X3287Y1404D02*
X3356Y1404D01*
X3387Y1404D02*
X3456Y1404D01*
X3487Y1404D02*
X3556Y1404D01*
X2188Y1403D02*
X2255Y1403D01*
X2288Y1403D02*
X2355Y1403D01*
X2388Y1403D02*
X2455Y1403D01*
X2488Y1403D02*
X2555Y1403D01*
X2588Y1403D02*
X2655Y1403D01*
X2688Y1403D02*
X2755Y1403D01*
X2788Y1403D02*
X2855Y1403D01*
X2888Y1403D02*
X2955Y1403D01*
X2988Y1403D02*
X3055Y1403D01*
X3088Y1403D02*
X3155Y1403D01*
X3188Y1403D02*
X3255Y1403D01*
X3288Y1403D02*
X3355Y1403D01*
X3388Y1403D02*
X3455Y1403D01*
X3488Y1403D02*
X3555Y1403D01*
X2188Y1402D02*
X2255Y1402D01*
X2288Y1402D02*
X2355Y1402D01*
X2388Y1402D02*
X2455Y1402D01*
X2488Y1402D02*
X2555Y1402D01*
X2588Y1402D02*
X2655Y1402D01*
X2688Y1402D02*
X2755Y1402D01*
X2788Y1402D02*
X2855Y1402D01*
X2888Y1402D02*
X2955Y1402D01*
X2988Y1402D02*
X3055Y1402D01*
X3088Y1402D02*
X3155Y1402D01*
X3188Y1402D02*
X3254Y1402D01*
X3288Y1402D02*
X3354Y1402D01*
X3388Y1402D02*
X3454Y1402D01*
X3488Y1402D02*
X3554Y1402D01*
X2189Y1401D02*
X2254Y1401D01*
X2289Y1401D02*
X2354Y1401D01*
X2389Y1401D02*
X2454Y1401D01*
X2489Y1401D02*
X2554Y1401D01*
X2589Y1401D02*
X2654Y1401D01*
X2689Y1401D02*
X2754Y1401D01*
X2789Y1401D02*
X2854Y1401D01*
X2889Y1401D02*
X2954Y1401D01*
X2989Y1401D02*
X3054Y1401D01*
X3089Y1401D02*
X3154Y1401D01*
X3189Y1401D02*
X3254Y1401D01*
X3289Y1401D02*
X3354Y1401D01*
X3389Y1401D02*
X3454Y1401D01*
X3489Y1401D02*
X3554Y1401D01*
X2190Y1400D02*
X2253Y1400D01*
X2290Y1400D02*
X2353Y1400D01*
X2390Y1400D02*
X2453Y1400D01*
X2490Y1400D02*
X2553Y1400D01*
X2590Y1400D02*
X2653Y1400D01*
X2690Y1400D02*
X2753Y1400D01*
X2790Y1400D02*
X2853Y1400D01*
X2890Y1400D02*
X2953Y1400D01*
X2990Y1400D02*
X3053Y1400D01*
X3090Y1400D02*
X3153Y1400D01*
X3190Y1400D02*
X3253Y1400D01*
X3290Y1400D02*
X3353Y1400D01*
X3389Y1400D02*
X3453Y1400D01*
X3489Y1400D02*
X3553Y1400D01*
X2190Y1399D02*
X2253Y1399D01*
X2290Y1399D02*
X2352Y1399D01*
X2390Y1399D02*
X2452Y1399D01*
X2490Y1399D02*
X2552Y1399D01*
X2590Y1399D02*
X2652Y1399D01*
X2690Y1399D02*
X2752Y1399D01*
X2790Y1399D02*
X2852Y1399D01*
X2890Y1399D02*
X2952Y1399D01*
X2990Y1399D02*
X3052Y1399D01*
X3090Y1399D02*
X3152Y1399D01*
X3190Y1399D02*
X3252Y1399D01*
X3290Y1399D02*
X3352Y1399D01*
X3390Y1399D02*
X3452Y1399D01*
X3490Y1399D02*
X3552Y1399D01*
X2191Y1398D02*
X2252Y1398D01*
X2291Y1398D02*
X2352Y1398D01*
X2391Y1398D02*
X2452Y1398D01*
X2491Y1398D02*
X2552Y1398D01*
X2591Y1398D02*
X2652Y1398D01*
X2691Y1398D02*
X2752Y1398D01*
X2791Y1398D02*
X2852Y1398D01*
X2891Y1398D02*
X2952Y1398D01*
X2991Y1398D02*
X3052Y1398D01*
X3091Y1398D02*
X3152Y1398D01*
X3191Y1398D02*
X3252Y1398D01*
X3291Y1398D02*
X3352Y1398D01*
X3391Y1398D02*
X3452Y1398D01*
X3491Y1398D02*
X3552Y1398D01*
X2192Y1397D02*
X2251Y1397D01*
X2292Y1397D02*
X2351Y1397D01*
X2392Y1397D02*
X2451Y1397D01*
X2492Y1397D02*
X2551Y1397D01*
X2592Y1397D02*
X2651Y1397D01*
X2692Y1397D02*
X2751Y1397D01*
X2792Y1397D02*
X2851Y1397D01*
X2892Y1397D02*
X2951Y1397D01*
X2992Y1397D02*
X3051Y1397D01*
X3092Y1397D02*
X3151Y1397D01*
X3192Y1397D02*
X3251Y1397D01*
X3292Y1397D02*
X3351Y1397D01*
X3392Y1397D02*
X3451Y1397D01*
X3492Y1397D02*
X3551Y1397D01*
X2193Y1396D02*
X2250Y1396D01*
X2293Y1396D02*
X2350Y1396D01*
X2393Y1396D02*
X2450Y1396D01*
X2493Y1396D02*
X2550Y1396D01*
X2593Y1396D02*
X2650Y1396D01*
X2693Y1396D02*
X2750Y1396D01*
X2793Y1396D02*
X2850Y1396D01*
X2893Y1396D02*
X2950Y1396D01*
X2993Y1396D02*
X3050Y1396D01*
X3093Y1396D02*
X3150Y1396D01*
X3193Y1396D02*
X3250Y1396D01*
X3293Y1396D02*
X3350Y1396D01*
X3393Y1396D02*
X3450Y1396D01*
X3493Y1396D02*
X3550Y1396D01*
X2194Y1395D02*
X2249Y1395D01*
X2294Y1395D02*
X2349Y1395D01*
X2394Y1395D02*
X2449Y1395D01*
X2494Y1395D02*
X2549Y1395D01*
X2594Y1395D02*
X2649Y1395D01*
X2694Y1395D02*
X2749Y1395D01*
X2794Y1395D02*
X2849Y1395D01*
X2894Y1395D02*
X2949Y1395D01*
X2994Y1395D02*
X3049Y1395D01*
X3094Y1395D02*
X3149Y1395D01*
X3194Y1395D02*
X3249Y1395D01*
X3294Y1395D02*
X3349Y1395D01*
X3394Y1395D02*
X3449Y1395D01*
X3494Y1395D02*
X3549Y1395D01*
X2195Y1394D02*
X2248Y1394D01*
X2295Y1394D02*
X2348Y1394D01*
X2395Y1394D02*
X2448Y1394D01*
X2495Y1394D02*
X2548Y1394D01*
X2595Y1394D02*
X2648Y1394D01*
X2695Y1394D02*
X2748Y1394D01*
X2795Y1394D02*
X2848Y1394D01*
X2895Y1394D02*
X2948Y1394D01*
X2995Y1394D02*
X3048Y1394D01*
X3095Y1394D02*
X3148Y1394D01*
X3195Y1394D02*
X3248Y1394D01*
X3295Y1394D02*
X3348Y1394D01*
X3395Y1394D02*
X3448Y1394D01*
X3495Y1394D02*
X3548Y1394D01*
X2196Y1393D02*
X2247Y1393D01*
X2296Y1393D02*
X2347Y1393D01*
X2396Y1393D02*
X2447Y1393D01*
X2496Y1393D02*
X2547Y1393D01*
X2596Y1393D02*
X2647Y1393D01*
X2696Y1393D02*
X2747Y1393D01*
X2796Y1393D02*
X2847Y1393D01*
X2896Y1393D02*
X2947Y1393D01*
X2996Y1393D02*
X3047Y1393D01*
X3096Y1393D02*
X3147Y1393D01*
X3196Y1393D02*
X3247Y1393D01*
X3296Y1393D02*
X3347Y1393D01*
X3396Y1393D02*
X3447Y1393D01*
X3496Y1393D02*
X3547Y1393D01*
X2197Y1392D02*
X2246Y1392D01*
X2297Y1392D02*
X2346Y1392D01*
X2397Y1392D02*
X2446Y1392D01*
X2497Y1392D02*
X2546Y1392D01*
X2597Y1392D02*
X2645Y1392D01*
X2697Y1392D02*
X2745Y1392D01*
X2797Y1392D02*
X2845Y1392D01*
X2897Y1392D02*
X2945Y1392D01*
X2997Y1392D02*
X3045Y1392D01*
X3097Y1392D02*
X3145Y1392D01*
X3197Y1392D02*
X3245Y1392D01*
X3297Y1392D02*
X3345Y1392D01*
X3397Y1392D02*
X3445Y1392D01*
X3497Y1392D02*
X3545Y1392D01*
X2199Y1391D02*
X2244Y1391D01*
X2299Y1391D02*
X2344Y1391D01*
X2399Y1391D02*
X2444Y1391D01*
X2499Y1391D02*
X2544Y1391D01*
X2599Y1391D02*
X2644Y1391D01*
X2699Y1391D02*
X2744Y1391D01*
X2799Y1391D02*
X2844Y1391D01*
X2899Y1391D02*
X2944Y1391D01*
X2999Y1391D02*
X3044Y1391D01*
X3099Y1391D02*
X3144Y1391D01*
X3199Y1391D02*
X3244Y1391D01*
X3299Y1391D02*
X3344Y1391D01*
X3399Y1391D02*
X3444Y1391D01*
X3499Y1391D02*
X3544Y1391D01*
X2200Y1390D02*
X2243Y1390D01*
X2300Y1390D02*
X2343Y1390D01*
X2400Y1390D02*
X2443Y1390D01*
X2500Y1390D02*
X2543Y1390D01*
X2600Y1390D02*
X2643Y1390D01*
X2700Y1390D02*
X2743Y1390D01*
X2800Y1390D02*
X2843Y1390D01*
X2900Y1390D02*
X2943Y1390D01*
X3000Y1390D02*
X3043Y1390D01*
X3100Y1390D02*
X3143Y1390D01*
X3200Y1390D02*
X3243Y1390D01*
X3300Y1390D02*
X3343Y1390D01*
X3400Y1390D02*
X3443Y1390D01*
X3500Y1390D02*
X3543Y1390D01*
X2202Y1389D02*
X2241Y1389D01*
X2302Y1389D02*
X2341Y1389D01*
X2402Y1389D02*
X2441Y1389D01*
X2502Y1389D02*
X2541Y1389D01*
X2602Y1389D02*
X2641Y1389D01*
X2702Y1389D02*
X2741Y1389D01*
X2802Y1389D02*
X2841Y1389D01*
X2902Y1389D02*
X2941Y1389D01*
X3002Y1389D02*
X3041Y1389D01*
X3102Y1389D02*
X3141Y1389D01*
X3202Y1389D02*
X3241Y1389D01*
X3302Y1389D02*
X3341Y1389D01*
X3402Y1389D02*
X3441Y1389D01*
X3502Y1389D02*
X3541Y1389D01*
X2203Y1388D02*
X2239Y1388D01*
X2303Y1388D02*
X2339Y1388D01*
X2403Y1388D02*
X2439Y1388D01*
X2503Y1388D02*
X2539Y1388D01*
X2603Y1388D02*
X2639Y1388D01*
X2703Y1388D02*
X2739Y1388D01*
X2803Y1388D02*
X2839Y1388D01*
X2903Y1388D02*
X2939Y1388D01*
X3003Y1388D02*
X3039Y1388D01*
X3103Y1388D02*
X3139Y1388D01*
X3203Y1388D02*
X3239Y1388D01*
X3303Y1388D02*
X3339Y1388D01*
X3403Y1388D02*
X3439Y1388D01*
X3503Y1388D02*
X3539Y1388D01*
X2206Y1387D02*
X2237Y1387D01*
X2306Y1387D02*
X2337Y1387D01*
X2405Y1387D02*
X2437Y1387D01*
X2505Y1387D02*
X2537Y1387D01*
X2605Y1387D02*
X2637Y1387D01*
X2705Y1387D02*
X2737Y1387D01*
X2805Y1387D02*
X2837Y1387D01*
X2905Y1387D02*
X2937Y1387D01*
X3005Y1387D02*
X3037Y1387D01*
X3105Y1387D02*
X3137Y1387D01*
X3205Y1387D02*
X3237Y1387D01*
X3305Y1387D02*
X3337Y1387D01*
X3405Y1387D02*
X3437Y1387D01*
X3505Y1387D02*
X3537Y1387D01*
X2208Y1386D02*
X2235Y1386D01*
X2308Y1386D02*
X2335Y1386D01*
X2408Y1386D02*
X2435Y1386D01*
X2508Y1386D02*
X2535Y1386D01*
X2608Y1386D02*
X2635Y1386D01*
X2708Y1386D02*
X2735Y1386D01*
X2808Y1386D02*
X2835Y1386D01*
X2908Y1386D02*
X2935Y1386D01*
X3008Y1386D02*
X3035Y1386D01*
X3108Y1386D02*
X3135Y1386D01*
X3208Y1386D02*
X3235Y1386D01*
X3308Y1386D02*
X3335Y1386D01*
X3408Y1386D02*
X3435Y1386D01*
X3508Y1386D02*
X3535Y1386D01*
X2211Y1385D02*
X2232Y1385D01*
X2311Y1385D02*
X2332Y1385D01*
X2411Y1385D02*
X2432Y1385D01*
X2511Y1385D02*
X2532Y1385D01*
X2611Y1385D02*
X2632Y1385D01*
X2711Y1385D02*
X2732Y1385D01*
X2811Y1385D02*
X2832Y1385D01*
X2911Y1385D02*
X2932Y1385D01*
X3011Y1385D02*
X3032Y1385D01*
X3111Y1385D02*
X3132Y1385D01*
X3211Y1385D02*
X3232Y1385D01*
X3311Y1385D02*
X3332Y1385D01*
X3411Y1385D02*
X3432Y1385D01*
X3511Y1385D02*
X3532Y1385D01*
X2216Y1384D02*
X2227Y1384D01*
X2316Y1384D02*
X2327Y1384D01*
X2416Y1384D02*
X2427Y1384D01*
X2516Y1384D02*
X2527Y1384D01*
X2616Y1384D02*
X2627Y1384D01*
X2716Y1384D02*
X2727Y1384D01*
X2816Y1384D02*
X2827Y1384D01*
X2916Y1384D02*
X2927Y1384D01*
X3016Y1384D02*
X3027Y1384D01*
X3116Y1384D02*
X3127Y1384D01*
X3216Y1384D02*
X3227Y1384D01*
X3316Y1384D02*
X3327Y1384D01*
X3416Y1384D02*
X3427Y1384D01*
X3516Y1384D02*
X3527Y1384D01*
X2217Y1163D02*
X2226Y1163D01*
X2317Y1163D02*
X2326Y1163D01*
X2417Y1163D02*
X2426Y1163D01*
X2517Y1163D02*
X2526Y1163D01*
X2617Y1163D02*
X2626Y1163D01*
X2717Y1163D02*
X2726Y1163D01*
X2817Y1163D02*
X2826Y1163D01*
X2917Y1163D02*
X2926Y1163D01*
X3017Y1163D02*
X3026Y1163D01*
X3116Y1163D02*
X3126Y1163D01*
X3216Y1163D02*
X3226Y1163D01*
X3316Y1163D02*
X3326Y1163D01*
X3416Y1163D02*
X3426Y1163D01*
X3516Y1163D02*
X3526Y1163D01*
X2212Y1162D02*
X2231Y1162D01*
X2312Y1162D02*
X2331Y1162D01*
X2412Y1162D02*
X2431Y1162D01*
X2512Y1162D02*
X2531Y1162D01*
X2612Y1162D02*
X2631Y1162D01*
X2712Y1162D02*
X2731Y1162D01*
X2812Y1162D02*
X2831Y1162D01*
X2912Y1162D02*
X2931Y1162D01*
X3012Y1162D02*
X3031Y1162D01*
X3111Y1162D02*
X3131Y1162D01*
X3211Y1162D02*
X3231Y1162D01*
X3311Y1162D02*
X3331Y1162D01*
X3411Y1162D02*
X3431Y1162D01*
X3511Y1162D02*
X3531Y1162D01*
X2208Y1161D02*
X2235Y1161D01*
X2308Y1161D02*
X2335Y1161D01*
X2408Y1161D02*
X2435Y1161D01*
X2508Y1161D02*
X2535Y1161D01*
X2608Y1161D02*
X2635Y1161D01*
X2708Y1161D02*
X2735Y1161D01*
X2808Y1161D02*
X2835Y1161D01*
X2908Y1161D02*
X2935Y1161D01*
X3008Y1161D02*
X3035Y1161D01*
X3108Y1161D02*
X3134Y1161D01*
X3208Y1161D02*
X3234Y1161D01*
X3308Y1161D02*
X3334Y1161D01*
X3408Y1161D02*
X3434Y1161D01*
X3508Y1161D02*
X3534Y1161D01*
X2206Y1160D02*
X2237Y1160D01*
X2306Y1160D02*
X2337Y1160D01*
X2406Y1160D02*
X2437Y1160D01*
X2506Y1160D02*
X2537Y1160D01*
X2606Y1160D02*
X2637Y1160D01*
X2706Y1160D02*
X2737Y1160D01*
X2806Y1160D02*
X2837Y1160D01*
X2906Y1160D02*
X2937Y1160D01*
X3006Y1160D02*
X3037Y1160D01*
X3106Y1160D02*
X3137Y1160D01*
X3206Y1160D02*
X3237Y1160D01*
X3306Y1160D02*
X3337Y1160D01*
X3406Y1160D02*
X3437Y1160D01*
X3506Y1160D02*
X3537Y1160D01*
X2204Y1159D02*
X2239Y1159D01*
X2304Y1159D02*
X2339Y1159D01*
X2404Y1159D02*
X2439Y1159D01*
X2504Y1159D02*
X2539Y1159D01*
X2604Y1159D02*
X2639Y1159D01*
X2704Y1159D02*
X2739Y1159D01*
X2804Y1159D02*
X2839Y1159D01*
X2904Y1159D02*
X2939Y1159D01*
X3004Y1159D02*
X3039Y1159D01*
X3104Y1159D02*
X3139Y1159D01*
X3204Y1159D02*
X3239Y1159D01*
X3304Y1159D02*
X3339Y1159D01*
X3404Y1159D02*
X3439Y1159D01*
X3504Y1159D02*
X3539Y1159D01*
X2202Y1158D02*
X2241Y1158D01*
X2302Y1158D02*
X2341Y1158D01*
X2402Y1158D02*
X2441Y1158D01*
X2502Y1158D02*
X2541Y1158D01*
X2602Y1158D02*
X2641Y1158D01*
X2702Y1158D02*
X2741Y1158D01*
X2802Y1158D02*
X2841Y1158D01*
X2902Y1158D02*
X2941Y1158D01*
X3002Y1158D02*
X3041Y1158D01*
X3102Y1158D02*
X3141Y1158D01*
X3202Y1158D02*
X3241Y1158D01*
X3302Y1158D02*
X3341Y1158D01*
X3402Y1158D02*
X3441Y1158D01*
X3502Y1158D02*
X3541Y1158D01*
X2200Y1157D02*
X2243Y1157D01*
X2300Y1157D02*
X2343Y1157D01*
X2400Y1157D02*
X2443Y1157D01*
X2500Y1157D02*
X2543Y1157D01*
X2600Y1157D02*
X2643Y1157D01*
X2700Y1157D02*
X2743Y1157D01*
X2800Y1157D02*
X2843Y1157D01*
X2900Y1157D02*
X2942Y1157D01*
X3000Y1157D02*
X3042Y1157D01*
X3100Y1157D02*
X3142Y1157D01*
X3200Y1157D02*
X3242Y1157D01*
X3300Y1157D02*
X3342Y1157D01*
X3400Y1157D02*
X3442Y1157D01*
X3500Y1157D02*
X3542Y1157D01*
X2199Y1156D02*
X2244Y1156D01*
X2299Y1156D02*
X2344Y1156D01*
X2399Y1156D02*
X2444Y1156D01*
X2499Y1156D02*
X2544Y1156D01*
X2599Y1156D02*
X2644Y1156D01*
X2699Y1156D02*
X2744Y1156D01*
X2799Y1156D02*
X2844Y1156D01*
X2899Y1156D02*
X2944Y1156D01*
X2999Y1156D02*
X3044Y1156D01*
X3099Y1156D02*
X3144Y1156D01*
X3199Y1156D02*
X3244Y1156D01*
X3299Y1156D02*
X3344Y1156D01*
X3399Y1156D02*
X3444Y1156D01*
X3499Y1156D02*
X3544Y1156D01*
X2197Y1155D02*
X2245Y1155D01*
X2297Y1155D02*
X2345Y1155D01*
X2397Y1155D02*
X2445Y1155D01*
X2497Y1155D02*
X2545Y1155D01*
X2597Y1155D02*
X2645Y1155D01*
X2697Y1155D02*
X2745Y1155D01*
X2797Y1155D02*
X2845Y1155D01*
X2897Y1155D02*
X2945Y1155D01*
X2997Y1155D02*
X3045Y1155D01*
X3097Y1155D02*
X3145Y1155D01*
X3197Y1155D02*
X3245Y1155D01*
X3297Y1155D02*
X3345Y1155D01*
X3397Y1155D02*
X3445Y1155D01*
X3497Y1155D02*
X3545Y1155D01*
X2196Y1154D02*
X2247Y1154D01*
X2296Y1154D02*
X2347Y1154D01*
X2396Y1154D02*
X2447Y1154D01*
X2496Y1154D02*
X2547Y1154D01*
X2596Y1154D02*
X2647Y1154D01*
X2696Y1154D02*
X2747Y1154D01*
X2796Y1154D02*
X2847Y1154D01*
X2896Y1154D02*
X2947Y1154D01*
X2996Y1154D02*
X3047Y1154D01*
X3096Y1154D02*
X3147Y1154D01*
X3196Y1154D02*
X3247Y1154D01*
X3296Y1154D02*
X3347Y1154D01*
X3396Y1154D02*
X3447Y1154D01*
X3496Y1154D02*
X3547Y1154D01*
X2195Y1153D02*
X2248Y1153D01*
X2295Y1153D02*
X2348Y1153D01*
X2395Y1153D02*
X2448Y1153D01*
X2495Y1153D02*
X2548Y1153D01*
X2595Y1153D02*
X2648Y1153D01*
X2695Y1153D02*
X2748Y1153D01*
X2795Y1153D02*
X2848Y1153D01*
X2895Y1153D02*
X2948Y1153D01*
X2995Y1153D02*
X3048Y1153D01*
X3095Y1153D02*
X3148Y1153D01*
X3195Y1153D02*
X3248Y1153D01*
X3295Y1153D02*
X3348Y1153D01*
X3395Y1153D02*
X3448Y1153D01*
X3495Y1153D02*
X3548Y1153D01*
X2194Y1152D02*
X2249Y1152D01*
X2294Y1152D02*
X2349Y1152D01*
X2394Y1152D02*
X2449Y1152D01*
X2494Y1152D02*
X2549Y1152D01*
X2594Y1152D02*
X2649Y1152D01*
X2694Y1152D02*
X2749Y1152D01*
X2794Y1152D02*
X2849Y1152D01*
X2894Y1152D02*
X2949Y1152D01*
X2994Y1152D02*
X3049Y1152D01*
X3094Y1152D02*
X3149Y1152D01*
X3194Y1152D02*
X3249Y1152D01*
X3294Y1152D02*
X3349Y1152D01*
X3394Y1152D02*
X3449Y1152D01*
X3494Y1152D02*
X3549Y1152D01*
X2193Y1151D02*
X2250Y1151D01*
X2293Y1151D02*
X2350Y1151D01*
X2393Y1151D02*
X2450Y1151D01*
X2493Y1151D02*
X2550Y1151D01*
X2593Y1151D02*
X2650Y1151D01*
X2693Y1151D02*
X2750Y1151D01*
X2793Y1151D02*
X2850Y1151D01*
X2893Y1151D02*
X2950Y1151D01*
X2993Y1151D02*
X3050Y1151D01*
X3093Y1151D02*
X3150Y1151D01*
X3193Y1151D02*
X3250Y1151D01*
X3293Y1151D02*
X3350Y1151D01*
X3393Y1151D02*
X3450Y1151D01*
X3493Y1151D02*
X3550Y1151D01*
X2192Y1150D02*
X2251Y1150D01*
X2292Y1150D02*
X2351Y1150D01*
X2392Y1150D02*
X2451Y1150D01*
X2492Y1150D02*
X2551Y1150D01*
X2592Y1150D02*
X2651Y1150D01*
X2692Y1150D02*
X2751Y1150D01*
X2792Y1150D02*
X2851Y1150D01*
X2892Y1150D02*
X2951Y1150D01*
X2992Y1150D02*
X3051Y1150D01*
X3092Y1150D02*
X3151Y1150D01*
X3192Y1150D02*
X3251Y1150D01*
X3292Y1150D02*
X3351Y1150D01*
X3392Y1150D02*
X3451Y1150D01*
X3492Y1150D02*
X3551Y1150D01*
X2191Y1149D02*
X2252Y1149D01*
X2291Y1149D02*
X2352Y1149D01*
X2391Y1149D02*
X2452Y1149D01*
X2491Y1149D02*
X2552Y1149D01*
X2591Y1149D02*
X2652Y1149D01*
X2691Y1149D02*
X2752Y1149D01*
X2791Y1149D02*
X2852Y1149D01*
X2891Y1149D02*
X2952Y1149D01*
X2991Y1149D02*
X3052Y1149D01*
X3091Y1149D02*
X3152Y1149D01*
X3191Y1149D02*
X3252Y1149D01*
X3291Y1149D02*
X3352Y1149D01*
X3391Y1149D02*
X3452Y1149D01*
X3491Y1149D02*
X3552Y1149D01*
X2190Y1148D02*
X2252Y1148D01*
X2290Y1148D02*
X2352Y1148D01*
X2390Y1148D02*
X2452Y1148D01*
X2490Y1148D02*
X2552Y1148D01*
X2590Y1148D02*
X2652Y1148D01*
X2690Y1148D02*
X2752Y1148D01*
X2790Y1148D02*
X2852Y1148D01*
X2890Y1148D02*
X2952Y1148D01*
X2990Y1148D02*
X3052Y1148D01*
X3090Y1148D02*
X3152Y1148D01*
X3190Y1148D02*
X3252Y1148D01*
X3290Y1148D02*
X3352Y1148D01*
X3390Y1148D02*
X3452Y1148D01*
X3490Y1148D02*
X3552Y1148D01*
X2190Y1147D02*
X2253Y1147D01*
X2290Y1147D02*
X2353Y1147D01*
X2390Y1147D02*
X2453Y1147D01*
X2490Y1147D02*
X2553Y1147D01*
X2590Y1147D02*
X2653Y1147D01*
X2690Y1147D02*
X2753Y1147D01*
X2790Y1147D02*
X2853Y1147D01*
X2890Y1147D02*
X2953Y1147D01*
X2990Y1147D02*
X3053Y1147D01*
X3090Y1147D02*
X3153Y1147D01*
X3190Y1147D02*
X3253Y1147D01*
X3290Y1147D02*
X3353Y1147D01*
X3390Y1147D02*
X3453Y1147D01*
X3490Y1147D02*
X3553Y1147D01*
X2189Y1146D02*
X2254Y1146D01*
X2289Y1146D02*
X2354Y1146D01*
X2389Y1146D02*
X2454Y1146D01*
X2489Y1146D02*
X2554Y1146D01*
X2589Y1146D02*
X2654Y1146D01*
X2689Y1146D02*
X2754Y1146D01*
X2789Y1146D02*
X2854Y1146D01*
X2889Y1146D02*
X2954Y1146D01*
X2989Y1146D02*
X3054Y1146D01*
X3089Y1146D02*
X3154Y1146D01*
X3189Y1146D02*
X3254Y1146D01*
X3289Y1146D02*
X3354Y1146D01*
X3389Y1146D02*
X3454Y1146D01*
X3489Y1146D02*
X3554Y1146D01*
X2188Y1145D02*
X2255Y1145D01*
X2288Y1145D02*
X2355Y1145D01*
X2388Y1145D02*
X2455Y1145D01*
X2488Y1145D02*
X2554Y1145D01*
X2588Y1145D02*
X2654Y1145D01*
X2688Y1145D02*
X2754Y1145D01*
X2788Y1145D02*
X2854Y1145D01*
X2888Y1145D02*
X2954Y1145D01*
X2988Y1145D02*
X3054Y1145D01*
X3088Y1145D02*
X3154Y1145D01*
X3188Y1145D02*
X3254Y1145D01*
X3288Y1145D02*
X3354Y1145D01*
X3388Y1145D02*
X3454Y1145D01*
X3488Y1145D02*
X3554Y1145D01*
X2188Y1144D02*
X2255Y1144D01*
X2288Y1144D02*
X2355Y1144D01*
X2388Y1144D02*
X2455Y1144D01*
X2488Y1144D02*
X2555Y1144D01*
X2588Y1144D02*
X2655Y1144D01*
X2688Y1144D02*
X2755Y1144D01*
X2788Y1144D02*
X2855Y1144D01*
X2888Y1144D02*
X2955Y1144D01*
X2988Y1144D02*
X3055Y1144D01*
X3088Y1144D02*
X3155Y1144D01*
X3188Y1144D02*
X3255Y1144D01*
X3288Y1144D02*
X3355Y1144D01*
X3388Y1144D02*
X3455Y1144D01*
X3488Y1144D02*
X3555Y1144D01*
X2187Y1143D02*
X2256Y1143D01*
X2287Y1143D02*
X2356Y1143D01*
X2387Y1143D02*
X2456Y1143D01*
X2487Y1143D02*
X2556Y1143D01*
X2587Y1143D02*
X2656Y1143D01*
X2687Y1143D02*
X2756Y1143D01*
X2787Y1143D02*
X2856Y1143D01*
X2887Y1143D02*
X2956Y1143D01*
X2987Y1143D02*
X3056Y1143D01*
X3087Y1143D02*
X3156Y1143D01*
X3187Y1143D02*
X3256Y1143D01*
X3287Y1143D02*
X3356Y1143D01*
X3387Y1143D02*
X3456Y1143D01*
X3487Y1143D02*
X3556Y1143D01*
X2187Y1142D02*
X2256Y1142D01*
X2287Y1142D02*
X2356Y1142D01*
X2387Y1142D02*
X2456Y1142D01*
X2487Y1142D02*
X2556Y1142D01*
X2587Y1142D02*
X2656Y1142D01*
X2687Y1142D02*
X2756Y1142D01*
X2786Y1142D02*
X2856Y1142D01*
X2886Y1142D02*
X2956Y1142D01*
X2986Y1142D02*
X3056Y1142D01*
X3086Y1142D02*
X3156Y1142D01*
X3186Y1142D02*
X3256Y1142D01*
X3286Y1142D02*
X3356Y1142D01*
X3386Y1142D02*
X3456Y1142D01*
X3486Y1142D02*
X3556Y1142D01*
X2186Y1141D02*
X2257Y1141D01*
X2286Y1141D02*
X2357Y1141D01*
X2386Y1141D02*
X2457Y1141D01*
X2486Y1141D02*
X2557Y1141D01*
X2586Y1141D02*
X2657Y1141D01*
X2686Y1141D02*
X2757Y1141D01*
X2786Y1141D02*
X2857Y1141D01*
X2886Y1141D02*
X2957Y1141D01*
X2986Y1141D02*
X3057Y1141D01*
X3086Y1141D02*
X3157Y1141D01*
X3186Y1141D02*
X3257Y1141D01*
X3286Y1141D02*
X3357Y1141D01*
X3386Y1141D02*
X3457Y1141D01*
X3486Y1141D02*
X3557Y1141D01*
X2186Y1140D02*
X2257Y1140D01*
X2286Y1140D02*
X2357Y1140D01*
X2386Y1140D02*
X2457Y1140D01*
X2486Y1140D02*
X2557Y1140D01*
X2586Y1140D02*
X2657Y1140D01*
X2686Y1140D02*
X2757Y1140D01*
X2786Y1140D02*
X2857Y1140D01*
X2885Y1140D02*
X2957Y1140D01*
X2985Y1140D02*
X3057Y1140D01*
X3085Y1140D02*
X3157Y1140D01*
X3185Y1140D02*
X3257Y1140D01*
X3285Y1140D02*
X3357Y1140D01*
X3385Y1140D02*
X3457Y1140D01*
X3485Y1140D02*
X3557Y1140D01*
X2185Y1139D02*
X2258Y1139D01*
X2285Y1139D02*
X2358Y1139D01*
X2385Y1139D02*
X2458Y1139D01*
X2485Y1139D02*
X2558Y1139D01*
X2585Y1139D02*
X2658Y1139D01*
X2685Y1139D02*
X2758Y1139D01*
X2785Y1139D02*
X2858Y1139D01*
X2885Y1139D02*
X2958Y1139D01*
X2985Y1139D02*
X3058Y1139D01*
X3085Y1139D02*
X3158Y1139D01*
X3185Y1139D02*
X3258Y1139D01*
X3285Y1139D02*
X3358Y1139D01*
X3385Y1139D02*
X3458Y1139D01*
X3485Y1139D02*
X3558Y1139D01*
X2185Y1138D02*
X2258Y1138D01*
X2285Y1138D02*
X2358Y1138D01*
X2385Y1138D02*
X2458Y1138D01*
X2485Y1138D02*
X2558Y1138D01*
X2585Y1138D02*
X2658Y1138D01*
X2685Y1138D02*
X2758Y1138D01*
X2785Y1138D02*
X2858Y1138D01*
X2885Y1138D02*
X2958Y1138D01*
X2985Y1138D02*
X3058Y1138D01*
X3085Y1138D02*
X3158Y1138D01*
X3185Y1138D02*
X3258Y1138D01*
X3285Y1138D02*
X3358Y1138D01*
X3385Y1138D02*
X3458Y1138D01*
X3485Y1138D02*
X3558Y1138D01*
X2184Y1137D02*
X2259Y1137D01*
X2284Y1137D02*
X2359Y1137D01*
X2384Y1137D02*
X2458Y1137D01*
X2484Y1137D02*
X2558Y1137D01*
X2584Y1137D02*
X2658Y1137D01*
X2684Y1137D02*
X2758Y1137D01*
X2784Y1137D02*
X2858Y1137D01*
X2884Y1137D02*
X2958Y1137D01*
X2984Y1137D02*
X3058Y1137D01*
X3084Y1137D02*
X3158Y1137D01*
X3184Y1137D02*
X3258Y1137D01*
X3284Y1137D02*
X3358Y1137D01*
X3384Y1137D02*
X3458Y1137D01*
X3484Y1137D02*
X3558Y1137D01*
X2184Y1136D02*
X2259Y1136D01*
X2284Y1136D02*
X2359Y1136D01*
X2384Y1136D02*
X2459Y1136D01*
X2484Y1136D02*
X2559Y1136D01*
X2584Y1136D02*
X2659Y1136D01*
X2684Y1136D02*
X2759Y1136D01*
X2784Y1136D02*
X2859Y1136D01*
X2884Y1136D02*
X2959Y1136D01*
X2984Y1136D02*
X3059Y1136D01*
X3084Y1136D02*
X3159Y1136D01*
X3184Y1136D02*
X3259Y1136D01*
X3284Y1136D02*
X3359Y1136D01*
X3384Y1136D02*
X3459Y1136D01*
X3484Y1136D02*
X3559Y1136D01*
X2184Y1135D02*
X2259Y1135D01*
X2284Y1135D02*
X2359Y1135D01*
X2384Y1135D02*
X2459Y1135D01*
X2484Y1135D02*
X2559Y1135D01*
X2584Y1135D02*
X2659Y1135D01*
X2684Y1135D02*
X2759Y1135D01*
X2784Y1135D02*
X2859Y1135D01*
X2884Y1135D02*
X2959Y1135D01*
X2984Y1135D02*
X3059Y1135D01*
X3084Y1135D02*
X3159Y1135D01*
X3184Y1135D02*
X3259Y1135D01*
X3284Y1135D02*
X3359Y1135D01*
X3384Y1135D02*
X3459Y1135D01*
X3484Y1135D02*
X3559Y1135D01*
X2183Y1134D02*
X2259Y1134D01*
X2283Y1134D02*
X2359Y1134D01*
X2383Y1134D02*
X2459Y1134D01*
X2483Y1134D02*
X2559Y1134D01*
X2583Y1134D02*
X2659Y1134D01*
X2683Y1134D02*
X2759Y1134D01*
X2783Y1134D02*
X2859Y1134D01*
X2883Y1134D02*
X2959Y1134D01*
X2983Y1134D02*
X3059Y1134D01*
X3083Y1134D02*
X3159Y1134D01*
X3183Y1134D02*
X3259Y1134D01*
X3283Y1134D02*
X3359Y1134D01*
X3383Y1134D02*
X3459Y1134D01*
X3483Y1134D02*
X3559Y1134D01*
X2183Y1133D02*
X2260Y1133D01*
X2283Y1133D02*
X2360Y1133D01*
X2383Y1133D02*
X2460Y1133D01*
X2483Y1133D02*
X2560Y1133D01*
X2583Y1133D02*
X2660Y1133D01*
X2683Y1133D02*
X2760Y1133D01*
X2783Y1133D02*
X2860Y1133D01*
X2883Y1133D02*
X2960Y1133D01*
X2983Y1133D02*
X3060Y1133D01*
X3083Y1133D02*
X3160Y1133D01*
X3183Y1133D02*
X3260Y1133D01*
X3283Y1133D02*
X3360Y1133D01*
X3383Y1133D02*
X3460Y1133D01*
X3483Y1133D02*
X3560Y1133D01*
X2183Y1132D02*
X2260Y1132D01*
X2283Y1132D02*
X2360Y1132D01*
X2383Y1132D02*
X2460Y1132D01*
X2483Y1132D02*
X2560Y1132D01*
X2583Y1132D02*
X2660Y1132D01*
X2683Y1132D02*
X2760Y1132D01*
X2783Y1132D02*
X2860Y1132D01*
X2883Y1132D02*
X2960Y1132D01*
X2983Y1132D02*
X3060Y1132D01*
X3083Y1132D02*
X3160Y1132D01*
X3183Y1132D02*
X3260Y1132D01*
X3283Y1132D02*
X3360Y1132D01*
X3383Y1132D02*
X3460Y1132D01*
X3483Y1132D02*
X3560Y1132D01*
X2183Y1131D02*
X2260Y1131D01*
X2283Y1131D02*
X2360Y1131D01*
X2383Y1131D02*
X2460Y1131D01*
X2483Y1131D02*
X2560Y1131D01*
X2583Y1131D02*
X2660Y1131D01*
X2683Y1131D02*
X2760Y1131D01*
X2783Y1131D02*
X2860Y1131D01*
X2883Y1131D02*
X2960Y1131D01*
X2983Y1131D02*
X3060Y1131D01*
X3083Y1131D02*
X3160Y1131D01*
X3183Y1131D02*
X3260Y1131D01*
X3283Y1131D02*
X3360Y1131D01*
X3383Y1131D02*
X3460Y1131D01*
X3483Y1131D02*
X3560Y1131D01*
X2183Y1130D02*
X2260Y1130D01*
X2283Y1130D02*
X2360Y1130D01*
X2383Y1130D02*
X2460Y1130D01*
X2483Y1130D02*
X2560Y1130D01*
X2583Y1130D02*
X2660Y1130D01*
X2683Y1130D02*
X2760Y1130D01*
X2783Y1130D02*
X2860Y1130D01*
X2883Y1130D02*
X2960Y1130D01*
X2983Y1130D02*
X3060Y1130D01*
X3082Y1130D02*
X3160Y1130D01*
X3182Y1130D02*
X3260Y1130D01*
X3282Y1130D02*
X3360Y1130D01*
X3382Y1130D02*
X3460Y1130D01*
X3482Y1130D02*
X3560Y1130D01*
X2182Y1129D02*
X2260Y1129D01*
X2282Y1129D02*
X2360Y1129D01*
X2382Y1129D02*
X2460Y1129D01*
X2482Y1129D02*
X2560Y1129D01*
X2582Y1129D02*
X2660Y1129D01*
X2682Y1129D02*
X2760Y1129D01*
X2782Y1129D02*
X2860Y1129D01*
X2882Y1129D02*
X2960Y1129D01*
X2982Y1129D02*
X3060Y1129D01*
X3082Y1129D02*
X3160Y1129D01*
X3182Y1129D02*
X3260Y1129D01*
X3282Y1129D02*
X3360Y1129D01*
X3382Y1129D02*
X3460Y1129D01*
X3482Y1129D02*
X3560Y1129D01*
X2182Y1128D02*
X2261Y1128D01*
X2282Y1128D02*
X2361Y1128D01*
X2382Y1128D02*
X2461Y1128D01*
X2482Y1128D02*
X2561Y1128D01*
X2582Y1128D02*
X2661Y1128D01*
X2682Y1128D02*
X2761Y1128D01*
X2782Y1128D02*
X2861Y1128D01*
X2882Y1128D02*
X2961Y1128D01*
X2982Y1128D02*
X3061Y1128D01*
X3082Y1128D02*
X3161Y1128D01*
X3182Y1128D02*
X3260Y1128D01*
X3282Y1128D02*
X3360Y1128D01*
X3382Y1128D02*
X3460Y1128D01*
X3482Y1128D02*
X3560Y1128D01*
X2182Y1127D02*
X2261Y1127D01*
X2282Y1127D02*
X2361Y1127D01*
X2382Y1127D02*
X2461Y1127D01*
X2482Y1127D02*
X2561Y1127D01*
X2582Y1127D02*
X2661Y1127D01*
X2682Y1127D02*
X2761Y1127D01*
X2782Y1127D02*
X2861Y1127D01*
X2882Y1127D02*
X2961Y1127D01*
X2982Y1127D02*
X3061Y1127D01*
X3082Y1127D02*
X3161Y1127D01*
X3182Y1127D02*
X3261Y1127D01*
X3282Y1127D02*
X3361Y1127D01*
X3382Y1127D02*
X3461Y1127D01*
X3482Y1127D02*
X3561Y1127D01*
X2182Y1126D02*
X2261Y1126D01*
X2282Y1126D02*
X2361Y1126D01*
X2382Y1126D02*
X2461Y1126D01*
X2482Y1126D02*
X2561Y1126D01*
X2582Y1126D02*
X2661Y1126D01*
X2682Y1126D02*
X2761Y1126D01*
X2782Y1126D02*
X2861Y1126D01*
X2882Y1126D02*
X2961Y1126D01*
X2982Y1126D02*
X3061Y1126D01*
X3082Y1126D02*
X3161Y1126D01*
X3182Y1126D02*
X3261Y1126D01*
X3282Y1126D02*
X3361Y1126D01*
X3382Y1126D02*
X3461Y1126D01*
X3482Y1126D02*
X3561Y1126D01*
X2182Y1125D02*
X2261Y1125D01*
X2282Y1125D02*
X2361Y1125D01*
X2382Y1125D02*
X2461Y1125D01*
X2482Y1125D02*
X2561Y1125D01*
X2582Y1125D02*
X2661Y1125D01*
X2682Y1125D02*
X2761Y1125D01*
X2782Y1125D02*
X2861Y1125D01*
X2882Y1125D02*
X2961Y1125D01*
X2982Y1125D02*
X3061Y1125D01*
X3082Y1125D02*
X3161Y1125D01*
X3182Y1125D02*
X3261Y1125D01*
X3282Y1125D02*
X3361Y1125D01*
X3382Y1125D02*
X3461Y1125D01*
X3482Y1125D02*
X3561Y1125D01*
X2182Y1124D02*
X2261Y1124D01*
X2282Y1124D02*
X2361Y1124D01*
X2382Y1124D02*
X2461Y1124D01*
X2482Y1124D02*
X2561Y1124D01*
X2582Y1124D02*
X2661Y1124D01*
X2682Y1124D02*
X2761Y1124D01*
X2782Y1124D02*
X2861Y1124D01*
X2882Y1124D02*
X2961Y1124D01*
X2982Y1124D02*
X3061Y1124D01*
X3082Y1124D02*
X3161Y1124D01*
X3182Y1124D02*
X3261Y1124D01*
X3282Y1124D02*
X3361Y1124D01*
X3382Y1124D02*
X3461Y1124D01*
X3482Y1124D02*
X3561Y1124D01*
X2182Y1123D02*
X2261Y1123D01*
X2282Y1123D02*
X2361Y1123D01*
X2382Y1123D02*
X2461Y1123D01*
X2482Y1123D02*
X2561Y1123D01*
X2582Y1123D02*
X2661Y1123D01*
X2682Y1123D02*
X2761Y1123D01*
X2782Y1123D02*
X2861Y1123D01*
X2882Y1123D02*
X2961Y1123D01*
X2982Y1123D02*
X3061Y1123D01*
X3082Y1123D02*
X3161Y1123D01*
X3182Y1123D02*
X3261Y1123D01*
X3282Y1123D02*
X3361Y1123D01*
X3382Y1123D02*
X3461Y1123D01*
X3482Y1123D02*
X3561Y1123D01*
X2182Y1122D02*
X2261Y1122D01*
X2282Y1122D02*
X2361Y1122D01*
X2382Y1122D02*
X2461Y1122D01*
X2482Y1122D02*
X2561Y1122D01*
X2582Y1122D02*
X2661Y1122D01*
X2682Y1122D02*
X2761Y1122D01*
X2782Y1122D02*
X2861Y1122D01*
X2882Y1122D02*
X2961Y1122D01*
X2982Y1122D02*
X3061Y1122D01*
X3082Y1122D02*
X3161Y1122D01*
X3182Y1122D02*
X3261Y1122D01*
X3282Y1122D02*
X3361Y1122D01*
X3382Y1122D02*
X3461Y1122D01*
X3482Y1122D02*
X3561Y1122D01*
X2182Y1121D02*
X2261Y1121D01*
X2282Y1121D02*
X2361Y1121D01*
X2382Y1121D02*
X2461Y1121D01*
X2482Y1121D02*
X2561Y1121D01*
X2582Y1121D02*
X2661Y1121D01*
X2682Y1121D02*
X2761Y1121D01*
X2782Y1121D02*
X2861Y1121D01*
X2882Y1121D02*
X2961Y1121D01*
X2982Y1121D02*
X3061Y1121D01*
X3082Y1121D02*
X3161Y1121D01*
X3182Y1121D02*
X3261Y1121D01*
X3282Y1121D02*
X3361Y1121D01*
X3382Y1121D02*
X3461Y1121D01*
X3482Y1121D02*
X3561Y1121D01*
X2182Y1120D02*
X2261Y1120D01*
X2282Y1120D02*
X2361Y1120D01*
X2382Y1120D02*
X2461Y1120D01*
X2482Y1120D02*
X2561Y1120D01*
X2582Y1120D02*
X2661Y1120D01*
X2682Y1120D02*
X2761Y1120D01*
X2782Y1120D02*
X2861Y1120D01*
X2882Y1120D02*
X2961Y1120D01*
X2982Y1120D02*
X3061Y1120D01*
X3082Y1120D02*
X3161Y1120D01*
X3182Y1120D02*
X3261Y1120D01*
X3282Y1120D02*
X3361Y1120D01*
X3382Y1120D02*
X3461Y1120D01*
X3482Y1120D02*
X3561Y1120D01*
X2182Y1119D02*
X2261Y1119D01*
X2282Y1119D02*
X2361Y1119D01*
X2382Y1119D02*
X2461Y1119D01*
X2482Y1119D02*
X2561Y1119D01*
X2582Y1119D02*
X2661Y1119D01*
X2682Y1119D02*
X2761Y1119D01*
X2782Y1119D02*
X2861Y1119D01*
X2882Y1119D02*
X2961Y1119D01*
X2982Y1119D02*
X3061Y1119D01*
X3082Y1119D02*
X3161Y1119D01*
X3182Y1119D02*
X3260Y1119D01*
X3282Y1119D02*
X3360Y1119D01*
X3382Y1119D02*
X3460Y1119D01*
X3482Y1119D02*
X3560Y1119D01*
X2182Y1118D02*
X2260Y1118D01*
X2282Y1118D02*
X2360Y1118D01*
X2382Y1118D02*
X2460Y1118D01*
X2482Y1118D02*
X2560Y1118D01*
X2582Y1118D02*
X2660Y1118D01*
X2682Y1118D02*
X2760Y1118D01*
X2782Y1118D02*
X2860Y1118D01*
X2882Y1118D02*
X2960Y1118D01*
X2982Y1118D02*
X3060Y1118D01*
X3082Y1118D02*
X3160Y1118D01*
X3182Y1118D02*
X3260Y1118D01*
X3282Y1118D02*
X3360Y1118D01*
X3382Y1118D02*
X3460Y1118D01*
X3482Y1118D02*
X3560Y1118D01*
X2183Y1117D02*
X2260Y1117D01*
X2283Y1117D02*
X2360Y1117D01*
X2383Y1117D02*
X2460Y1117D01*
X2483Y1117D02*
X2560Y1117D01*
X2583Y1117D02*
X2660Y1117D01*
X2683Y1117D02*
X2760Y1117D01*
X2783Y1117D02*
X2860Y1117D01*
X2882Y1117D02*
X2960Y1117D01*
X2982Y1117D02*
X3060Y1117D01*
X3082Y1117D02*
X3160Y1117D01*
X3182Y1117D02*
X3260Y1117D01*
X3282Y1117D02*
X3360Y1117D01*
X3382Y1117D02*
X3460Y1117D01*
X3482Y1117D02*
X3560Y1117D01*
X2183Y1116D02*
X2260Y1116D01*
X2283Y1116D02*
X2360Y1116D01*
X2383Y1116D02*
X2460Y1116D01*
X2483Y1116D02*
X2560Y1116D01*
X2583Y1116D02*
X2660Y1116D01*
X2683Y1116D02*
X2760Y1116D01*
X2783Y1116D02*
X2860Y1116D01*
X2883Y1116D02*
X2960Y1116D01*
X2983Y1116D02*
X3060Y1116D01*
X3083Y1116D02*
X3160Y1116D01*
X3183Y1116D02*
X3260Y1116D01*
X3283Y1116D02*
X3360Y1116D01*
X3383Y1116D02*
X3460Y1116D01*
X3483Y1116D02*
X3560Y1116D01*
X2183Y1115D02*
X2260Y1115D01*
X2283Y1115D02*
X2360Y1115D01*
X2383Y1115D02*
X2460Y1115D01*
X2483Y1115D02*
X2560Y1115D01*
X2583Y1115D02*
X2660Y1115D01*
X2683Y1115D02*
X2760Y1115D01*
X2783Y1115D02*
X2860Y1115D01*
X2883Y1115D02*
X2960Y1115D01*
X2983Y1115D02*
X3060Y1115D01*
X3083Y1115D02*
X3160Y1115D01*
X3183Y1115D02*
X3260Y1115D01*
X3283Y1115D02*
X3360Y1115D01*
X3383Y1115D02*
X3460Y1115D01*
X3483Y1115D02*
X3560Y1115D01*
X2183Y1114D02*
X2260Y1114D01*
X2283Y1114D02*
X2360Y1114D01*
X2383Y1114D02*
X2460Y1114D01*
X2483Y1114D02*
X2560Y1114D01*
X2583Y1114D02*
X2660Y1114D01*
X2683Y1114D02*
X2760Y1114D01*
X2783Y1114D02*
X2860Y1114D01*
X2883Y1114D02*
X2960Y1114D01*
X2983Y1114D02*
X3060Y1114D01*
X3083Y1114D02*
X3160Y1114D01*
X3183Y1114D02*
X3260Y1114D01*
X3283Y1114D02*
X3360Y1114D01*
X3383Y1114D02*
X3460Y1114D01*
X3483Y1114D02*
X3560Y1114D01*
X2183Y1113D02*
X2259Y1113D01*
X2283Y1113D02*
X2359Y1113D01*
X2383Y1113D02*
X2459Y1113D01*
X2483Y1113D02*
X2559Y1113D01*
X2583Y1113D02*
X2659Y1113D01*
X2683Y1113D02*
X2759Y1113D01*
X2783Y1113D02*
X2859Y1113D01*
X2883Y1113D02*
X2959Y1113D01*
X2983Y1113D02*
X3059Y1113D01*
X3083Y1113D02*
X3159Y1113D01*
X3183Y1113D02*
X3259Y1113D01*
X3283Y1113D02*
X3359Y1113D01*
X3383Y1113D02*
X3459Y1113D01*
X3483Y1113D02*
X3559Y1113D01*
X2184Y1112D02*
X2259Y1112D01*
X2284Y1112D02*
X2359Y1112D01*
X2384Y1112D02*
X2459Y1112D01*
X2484Y1112D02*
X2559Y1112D01*
X2584Y1112D02*
X2659Y1112D01*
X2684Y1112D02*
X2759Y1112D01*
X2784Y1112D02*
X2859Y1112D01*
X2884Y1112D02*
X2959Y1112D01*
X2984Y1112D02*
X3059Y1112D01*
X3084Y1112D02*
X3159Y1112D01*
X3184Y1112D02*
X3259Y1112D01*
X3284Y1112D02*
X3359Y1112D01*
X3384Y1112D02*
X3459Y1112D01*
X3484Y1112D02*
X3559Y1112D01*
X2184Y1111D02*
X2259Y1111D01*
X2284Y1111D02*
X2359Y1111D01*
X2384Y1111D02*
X2459Y1111D01*
X2484Y1111D02*
X2559Y1111D01*
X2584Y1111D02*
X2659Y1111D01*
X2684Y1111D02*
X2759Y1111D01*
X2784Y1111D02*
X2859Y1111D01*
X2884Y1111D02*
X2959Y1111D01*
X2984Y1111D02*
X3059Y1111D01*
X3084Y1111D02*
X3159Y1111D01*
X3184Y1111D02*
X3259Y1111D01*
X3284Y1111D02*
X3359Y1111D01*
X3384Y1111D02*
X3459Y1111D01*
X3484Y1111D02*
X3559Y1111D01*
X2184Y1110D02*
X2259Y1110D01*
X2284Y1110D02*
X2359Y1110D01*
X2384Y1110D02*
X2459Y1110D01*
X2484Y1110D02*
X2559Y1110D01*
X2584Y1110D02*
X2658Y1110D01*
X2684Y1110D02*
X2758Y1110D01*
X2784Y1110D02*
X2858Y1110D01*
X2884Y1110D02*
X2958Y1110D01*
X2984Y1110D02*
X3058Y1110D01*
X3084Y1110D02*
X3158Y1110D01*
X3184Y1110D02*
X3258Y1110D01*
X3284Y1110D02*
X3358Y1110D01*
X3384Y1110D02*
X3458Y1110D01*
X3484Y1110D02*
X3558Y1110D01*
X2185Y1109D02*
X2258Y1109D01*
X2285Y1109D02*
X2358Y1109D01*
X2385Y1109D02*
X2458Y1109D01*
X2485Y1109D02*
X2558Y1109D01*
X2585Y1109D02*
X2658Y1109D01*
X2685Y1109D02*
X2758Y1109D01*
X2785Y1109D02*
X2858Y1109D01*
X2885Y1109D02*
X2958Y1109D01*
X2985Y1109D02*
X3058Y1109D01*
X3085Y1109D02*
X3158Y1109D01*
X3185Y1109D02*
X3258Y1109D01*
X3285Y1109D02*
X3358Y1109D01*
X3385Y1109D02*
X3458Y1109D01*
X3485Y1109D02*
X3558Y1109D01*
X2185Y1108D02*
X2258Y1108D01*
X2285Y1108D02*
X2358Y1108D01*
X2385Y1108D02*
X2458Y1108D01*
X2485Y1108D02*
X2558Y1108D01*
X2585Y1108D02*
X2658Y1108D01*
X2685Y1108D02*
X2758Y1108D01*
X2785Y1108D02*
X2858Y1108D01*
X2885Y1108D02*
X2958Y1108D01*
X2985Y1108D02*
X3058Y1108D01*
X3085Y1108D02*
X3158Y1108D01*
X3185Y1108D02*
X3258Y1108D01*
X3285Y1108D02*
X3358Y1108D01*
X3385Y1108D02*
X3458Y1108D01*
X3485Y1108D02*
X3558Y1108D01*
X2186Y1107D02*
X2257Y1107D01*
X2286Y1107D02*
X2357Y1107D01*
X2386Y1107D02*
X2457Y1107D01*
X2485Y1107D02*
X2557Y1107D01*
X2585Y1107D02*
X2657Y1107D01*
X2685Y1107D02*
X2757Y1107D01*
X2785Y1107D02*
X2857Y1107D01*
X2885Y1107D02*
X2957Y1107D01*
X2985Y1107D02*
X3057Y1107D01*
X3085Y1107D02*
X3157Y1107D01*
X3185Y1107D02*
X3257Y1107D01*
X3285Y1107D02*
X3357Y1107D01*
X3385Y1107D02*
X3457Y1107D01*
X3485Y1107D02*
X3557Y1107D01*
X2186Y1106D02*
X2257Y1106D01*
X2286Y1106D02*
X2357Y1106D01*
X2386Y1106D02*
X2457Y1106D01*
X2486Y1106D02*
X2557Y1106D01*
X2586Y1106D02*
X2657Y1106D01*
X2686Y1106D02*
X2757Y1106D01*
X2786Y1106D02*
X2857Y1106D01*
X2886Y1106D02*
X2957Y1106D01*
X2986Y1106D02*
X3057Y1106D01*
X3086Y1106D02*
X3157Y1106D01*
X3186Y1106D02*
X3257Y1106D01*
X3286Y1106D02*
X3357Y1106D01*
X3386Y1106D02*
X3457Y1106D01*
X3486Y1106D02*
X3557Y1106D01*
X2187Y1105D02*
X2256Y1105D01*
X2287Y1105D02*
X2356Y1105D01*
X2386Y1105D02*
X2456Y1105D01*
X2486Y1105D02*
X2556Y1105D01*
X2586Y1105D02*
X2656Y1105D01*
X2686Y1105D02*
X2756Y1105D01*
X2786Y1105D02*
X2856Y1105D01*
X2886Y1105D02*
X2956Y1105D01*
X2986Y1105D02*
X3056Y1105D01*
X3086Y1105D02*
X3156Y1105D01*
X3186Y1105D02*
X3256Y1105D01*
X3286Y1105D02*
X3356Y1105D01*
X3386Y1105D02*
X3456Y1105D01*
X3486Y1105D02*
X3556Y1105D01*
X2187Y1104D02*
X2256Y1104D01*
X2287Y1104D02*
X2356Y1104D01*
X2387Y1104D02*
X2456Y1104D01*
X2487Y1104D02*
X2556Y1104D01*
X2587Y1104D02*
X2656Y1104D01*
X2687Y1104D02*
X2756Y1104D01*
X2787Y1104D02*
X2856Y1104D01*
X2887Y1104D02*
X2956Y1104D01*
X2987Y1104D02*
X3056Y1104D01*
X3087Y1104D02*
X3156Y1104D01*
X3187Y1104D02*
X3256Y1104D01*
X3287Y1104D02*
X3356Y1104D01*
X3387Y1104D02*
X3456Y1104D01*
X3487Y1104D02*
X3556Y1104D01*
X2188Y1103D02*
X2255Y1103D01*
X2288Y1103D02*
X2355Y1103D01*
X2388Y1103D02*
X2455Y1103D01*
X2488Y1103D02*
X2555Y1103D01*
X2588Y1103D02*
X2655Y1103D01*
X2688Y1103D02*
X2755Y1103D01*
X2788Y1103D02*
X2855Y1103D01*
X2888Y1103D02*
X2955Y1103D01*
X2988Y1103D02*
X3055Y1103D01*
X3088Y1103D02*
X3155Y1103D01*
X3188Y1103D02*
X3255Y1103D01*
X3288Y1103D02*
X3355Y1103D01*
X3388Y1103D02*
X3455Y1103D01*
X3488Y1103D02*
X3555Y1103D01*
X2188Y1102D02*
X2255Y1102D01*
X2288Y1102D02*
X2355Y1102D01*
X2388Y1102D02*
X2455Y1102D01*
X2488Y1102D02*
X2555Y1102D01*
X2588Y1102D02*
X2655Y1102D01*
X2688Y1102D02*
X2755Y1102D01*
X2788Y1102D02*
X2855Y1102D01*
X2888Y1102D02*
X2954Y1102D01*
X2988Y1102D02*
X3054Y1102D01*
X3088Y1102D02*
X3154Y1102D01*
X3188Y1102D02*
X3254Y1102D01*
X3288Y1102D02*
X3354Y1102D01*
X3388Y1102D02*
X3454Y1102D01*
X3488Y1102D02*
X3554Y1102D01*
X2189Y1101D02*
X2254Y1101D01*
X2289Y1101D02*
X2354Y1101D01*
X2389Y1101D02*
X2454Y1101D01*
X2489Y1101D02*
X2554Y1101D01*
X2589Y1101D02*
X2654Y1101D01*
X2689Y1101D02*
X2754Y1101D01*
X2789Y1101D02*
X2854Y1101D01*
X2889Y1101D02*
X2954Y1101D01*
X2989Y1101D02*
X3054Y1101D01*
X3089Y1101D02*
X3154Y1101D01*
X3189Y1101D02*
X3254Y1101D01*
X3289Y1101D02*
X3354Y1101D01*
X3389Y1101D02*
X3454Y1101D01*
X3489Y1101D02*
X3554Y1101D01*
X2190Y1100D02*
X2253Y1100D01*
X2290Y1100D02*
X2353Y1100D01*
X2390Y1100D02*
X2453Y1100D01*
X2490Y1100D02*
X2553Y1100D01*
X2590Y1100D02*
X2653Y1100D01*
X2690Y1100D02*
X2753Y1100D01*
X2790Y1100D02*
X2853Y1100D01*
X2890Y1100D02*
X2953Y1100D01*
X2990Y1100D02*
X3053Y1100D01*
X3090Y1100D02*
X3153Y1100D01*
X3190Y1100D02*
X3253Y1100D01*
X3290Y1100D02*
X3353Y1100D01*
X3390Y1100D02*
X3453Y1100D01*
X3490Y1100D02*
X3553Y1100D01*
X2190Y1099D02*
X2252Y1099D01*
X2290Y1099D02*
X2352Y1099D01*
X2390Y1099D02*
X2452Y1099D01*
X2490Y1099D02*
X2552Y1099D01*
X2590Y1099D02*
X2652Y1099D01*
X2690Y1099D02*
X2752Y1099D01*
X2790Y1099D02*
X2852Y1099D01*
X2890Y1099D02*
X2952Y1099D01*
X2990Y1099D02*
X3052Y1099D01*
X3090Y1099D02*
X3152Y1099D01*
X3190Y1099D02*
X3252Y1099D01*
X3290Y1099D02*
X3352Y1099D01*
X3390Y1099D02*
X3452Y1099D01*
X3490Y1099D02*
X3552Y1099D01*
X2191Y1098D02*
X2252Y1098D01*
X2291Y1098D02*
X2352Y1098D01*
X2391Y1098D02*
X2452Y1098D01*
X2491Y1098D02*
X2552Y1098D01*
X2591Y1098D02*
X2652Y1098D01*
X2691Y1098D02*
X2752Y1098D01*
X2791Y1098D02*
X2852Y1098D01*
X2891Y1098D02*
X2952Y1098D01*
X2991Y1098D02*
X3052Y1098D01*
X3091Y1098D02*
X3152Y1098D01*
X3191Y1098D02*
X3252Y1098D01*
X3291Y1098D02*
X3352Y1098D01*
X3391Y1098D02*
X3452Y1098D01*
X3491Y1098D02*
X3552Y1098D01*
X2192Y1097D02*
X2251Y1097D01*
X2292Y1097D02*
X2351Y1097D01*
X2392Y1097D02*
X2451Y1097D01*
X2492Y1097D02*
X2551Y1097D01*
X2592Y1097D02*
X2651Y1097D01*
X2692Y1097D02*
X2751Y1097D01*
X2792Y1097D02*
X2851Y1097D01*
X2892Y1097D02*
X2951Y1097D01*
X2992Y1097D02*
X3051Y1097D01*
X3092Y1097D02*
X3151Y1097D01*
X3192Y1097D02*
X3251Y1097D01*
X3292Y1097D02*
X3351Y1097D01*
X3392Y1097D02*
X3451Y1097D01*
X3492Y1097D02*
X3551Y1097D01*
X2193Y1096D02*
X2250Y1096D01*
X2293Y1096D02*
X2350Y1096D01*
X2393Y1096D02*
X2450Y1096D01*
X2493Y1096D02*
X2550Y1096D01*
X2593Y1096D02*
X2650Y1096D01*
X2693Y1096D02*
X2750Y1096D01*
X2793Y1096D02*
X2850Y1096D01*
X2893Y1096D02*
X2950Y1096D01*
X2993Y1096D02*
X3050Y1096D01*
X3093Y1096D02*
X3150Y1096D01*
X3193Y1096D02*
X3250Y1096D01*
X3293Y1096D02*
X3350Y1096D01*
X3393Y1096D02*
X3450Y1096D01*
X3493Y1096D02*
X3550Y1096D01*
X2194Y1095D02*
X2249Y1095D01*
X2294Y1095D02*
X2349Y1095D01*
X2394Y1095D02*
X2449Y1095D01*
X2494Y1095D02*
X2549Y1095D01*
X2594Y1095D02*
X2649Y1095D01*
X2694Y1095D02*
X2749Y1095D01*
X2794Y1095D02*
X2849Y1095D01*
X2894Y1095D02*
X2949Y1095D01*
X2994Y1095D02*
X3049Y1095D01*
X3094Y1095D02*
X3149Y1095D01*
X3194Y1095D02*
X3249Y1095D01*
X3294Y1095D02*
X3349Y1095D01*
X3394Y1095D02*
X3449Y1095D01*
X3494Y1095D02*
X3549Y1095D01*
X2195Y1094D02*
X2248Y1094D01*
X2295Y1094D02*
X2348Y1094D01*
X2395Y1094D02*
X2448Y1094D01*
X2495Y1094D02*
X2548Y1094D01*
X2595Y1094D02*
X2648Y1094D01*
X2695Y1094D02*
X2748Y1094D01*
X2795Y1094D02*
X2848Y1094D01*
X2895Y1094D02*
X2948Y1094D01*
X2995Y1094D02*
X3048Y1094D01*
X3095Y1094D02*
X3148Y1094D01*
X3195Y1094D02*
X3248Y1094D01*
X3295Y1094D02*
X3348Y1094D01*
X3395Y1094D02*
X3448Y1094D01*
X3495Y1094D02*
X3548Y1094D01*
X2196Y1093D02*
X2247Y1093D01*
X2296Y1093D02*
X2347Y1093D01*
X2396Y1093D02*
X2447Y1093D01*
X2496Y1093D02*
X2547Y1093D01*
X2596Y1093D02*
X2647Y1093D01*
X2696Y1093D02*
X2747Y1093D01*
X2796Y1093D02*
X2847Y1093D01*
X2896Y1093D02*
X2947Y1093D01*
X2996Y1093D02*
X3047Y1093D01*
X3096Y1093D02*
X3147Y1093D01*
X3196Y1093D02*
X3247Y1093D01*
X3296Y1093D02*
X3347Y1093D01*
X3396Y1093D02*
X3447Y1093D01*
X3496Y1093D02*
X3547Y1093D01*
X2197Y1092D02*
X2245Y1092D01*
X2297Y1092D02*
X2345Y1092D01*
X2397Y1092D02*
X2445Y1092D01*
X2497Y1092D02*
X2545Y1092D01*
X2597Y1092D02*
X2645Y1092D01*
X2697Y1092D02*
X2745Y1092D01*
X2797Y1092D02*
X2845Y1092D01*
X2897Y1092D02*
X2945Y1092D01*
X2997Y1092D02*
X3045Y1092D01*
X3097Y1092D02*
X3145Y1092D01*
X3197Y1092D02*
X3245Y1092D01*
X3297Y1092D02*
X3345Y1092D01*
X3397Y1092D02*
X3445Y1092D01*
X3497Y1092D02*
X3545Y1092D01*
X2199Y1091D02*
X2244Y1091D01*
X2299Y1091D02*
X2344Y1091D01*
X2399Y1091D02*
X2444Y1091D01*
X2499Y1091D02*
X2544Y1091D01*
X2599Y1091D02*
X2644Y1091D01*
X2699Y1091D02*
X2744Y1091D01*
X2799Y1091D02*
X2844Y1091D01*
X2899Y1091D02*
X2944Y1091D01*
X2999Y1091D02*
X3044Y1091D01*
X3099Y1091D02*
X3144Y1091D01*
X3199Y1091D02*
X3244Y1091D01*
X3299Y1091D02*
X3344Y1091D01*
X3399Y1091D02*
X3444Y1091D01*
X3499Y1091D02*
X3544Y1091D01*
X2200Y1090D02*
X2243Y1090D01*
X2300Y1090D02*
X2343Y1090D01*
X2400Y1090D02*
X2443Y1090D01*
X2500Y1090D02*
X2543Y1090D01*
X2600Y1090D02*
X2643Y1090D01*
X2700Y1090D02*
X2743Y1090D01*
X2800Y1090D02*
X2843Y1090D01*
X2900Y1090D02*
X2943Y1090D01*
X3000Y1090D02*
X3043Y1090D01*
X3100Y1090D02*
X3143Y1090D01*
X3200Y1090D02*
X3243Y1090D01*
X3300Y1090D02*
X3343Y1090D01*
X3400Y1090D02*
X3443Y1090D01*
X3500Y1090D02*
X3543Y1090D01*
X2202Y1089D02*
X2241Y1089D01*
X2302Y1089D02*
X2341Y1089D01*
X2402Y1089D02*
X2441Y1089D01*
X2502Y1089D02*
X2541Y1089D01*
X2602Y1089D02*
X2641Y1089D01*
X2702Y1089D02*
X2741Y1089D01*
X2802Y1089D02*
X2841Y1089D01*
X2902Y1089D02*
X2941Y1089D01*
X3002Y1089D02*
X3041Y1089D01*
X3102Y1089D02*
X3141Y1089D01*
X3202Y1089D02*
X3241Y1089D01*
X3302Y1089D02*
X3341Y1089D01*
X3402Y1089D02*
X3441Y1089D01*
X3502Y1089D02*
X3541Y1089D01*
X2204Y1088D02*
X2239Y1088D01*
X2304Y1088D02*
X2339Y1088D01*
X2404Y1088D02*
X2439Y1088D01*
X2504Y1088D02*
X2539Y1088D01*
X2604Y1088D02*
X2639Y1088D01*
X2704Y1088D02*
X2739Y1088D01*
X2804Y1088D02*
X2839Y1088D01*
X2903Y1088D02*
X2939Y1088D01*
X3003Y1088D02*
X3039Y1088D01*
X3103Y1088D02*
X3139Y1088D01*
X3203Y1088D02*
X3239Y1088D01*
X3303Y1088D02*
X3339Y1088D01*
X3403Y1088D02*
X3439Y1088D01*
X3503Y1088D02*
X3539Y1088D01*
X2206Y1087D02*
X2237Y1087D01*
X2306Y1087D02*
X2337Y1087D01*
X2406Y1087D02*
X2437Y1087D01*
X2506Y1087D02*
X2537Y1087D01*
X2606Y1087D02*
X2637Y1087D01*
X2706Y1087D02*
X2737Y1087D01*
X2806Y1087D02*
X2837Y1087D01*
X2906Y1087D02*
X2937Y1087D01*
X3006Y1087D02*
X3037Y1087D01*
X3106Y1087D02*
X3137Y1087D01*
X3205Y1087D02*
X3237Y1087D01*
X3305Y1087D02*
X3337Y1087D01*
X3405Y1087D02*
X3437Y1087D01*
X3505Y1087D02*
X3537Y1087D01*
X2208Y1086D02*
X2235Y1086D01*
X2308Y1086D02*
X2335Y1086D01*
X2408Y1086D02*
X2435Y1086D01*
X2508Y1086D02*
X2535Y1086D01*
X2608Y1086D02*
X2635Y1086D01*
X2708Y1086D02*
X2735Y1086D01*
X2808Y1086D02*
X2835Y1086D01*
X2908Y1086D02*
X2935Y1086D01*
X3008Y1086D02*
X3035Y1086D01*
X3108Y1086D02*
X3135Y1086D01*
X3208Y1086D02*
X3235Y1086D01*
X3308Y1086D02*
X3335Y1086D01*
X3408Y1086D02*
X3435Y1086D01*
X3508Y1086D02*
X3535Y1086D01*
X2211Y1085D02*
X2232Y1085D01*
X2311Y1085D02*
X2332Y1085D01*
X2411Y1085D02*
X2432Y1085D01*
X2511Y1085D02*
X2532Y1085D01*
X2611Y1085D02*
X2631Y1085D01*
X2711Y1085D02*
X2731Y1085D01*
X2811Y1085D02*
X2831Y1085D01*
X2911Y1085D02*
X2931Y1085D01*
X3011Y1085D02*
X3031Y1085D01*
X3111Y1085D02*
X3131Y1085D01*
X3211Y1085D02*
X3231Y1085D01*
X3311Y1085D02*
X3331Y1085D01*
X3411Y1085D02*
X3431Y1085D01*
X3511Y1085D02*
X3531Y1085D01*
X2216Y1084D02*
X2227Y1084D01*
X2316Y1084D02*
X2327Y1084D01*
X2416Y1084D02*
X2427Y1084D01*
X2516Y1084D02*
X2527Y1084D01*
X2616Y1084D02*
X2627Y1084D01*
X2716Y1084D02*
X2727Y1084D01*
X2816Y1084D02*
X2827Y1084D01*
X2916Y1084D02*
X2927Y1084D01*
X3016Y1084D02*
X3027Y1084D01*
X3116Y1084D02*
X3127Y1084D01*
X3216Y1084D02*
X3227Y1084D01*
X3316Y1084D02*
X3327Y1084D01*
X3416Y1084D02*
X3427Y1084D01*
X3516Y1084D02*
X3527Y1084D01*
D02*
G04 End of Mask0*
M02*